<?xml version="1.0" encoding="UTF-8"?> <svg xmlns="http://www.w3.org/2000/svg" id="Layer_2" data-name="Layer 2" viewBox="0 0 709.62 359.95"><defs><style> .cls-1 { fill: #000; stroke-width: 0px; } </style></defs><g id="Layer_1-2" data-name="Layer 1"><g><path class="cls-1" d="M562.18,1.02l21.11,23.77c1.66,1.87.57,5.33-2.18,6.94l-50.48,29.83c-1.98,1.21-4.04,1.09-5.14-.16l-15.87-17.86c-1.52-1.71-.76-4.61,1.56-6.38L556.12,1.4c2.16-1.64,4.68-1.93,6.06-.38Z"></path><path class="cls-1" d="M61.98,214.83c.06,0,.12,0,.18,0,2.42,0,4.43,1.9,4.55,4.34.12,2.5-1.79,4.63-4.29,4.77-.28.03-3.25.36-6.83,2.96,11.93,0,24.1-1.46,35.79-5.12,3.66-.97,6.34-5.6,6.09-10.97v-26.56c-.24-6.34-3.9-11.21-8.77-10.97l-21.93,1.22c-9.26,0-16.08-.97-19.25-14.38-1.22-5.61-1.71-16.09-1.71-30.71s1.22-24.61,3.9-29.49c2.44-4.63,8.29-7.07,17.3-7.07,6.58,0,13.65.49,20.96,1.46,4.63,0,8.77-3.9,8.77-10.72l.73-26.32c0-5.6-2.68-10.48-6.58-11.45-12.67-3.66-23.64-5.36-33.14-5.36-22.42,0-37.53,6.34-45.57,19.5S0,97.49,0,133.07c0,25.1,1.95,44.11,5.36,57.27,6.24,24.21,19.83,32.83,35.85,35.49,9.35-10.36,20.02-10.98,20.77-11Z"></path><path class="cls-1" d="M114.05,223.48h29.73c4.14,0,7.8-4.87,7.8-10.72v-41.19c0-6.09,3.41-10.72,7.8-10.72h9.75c4.39,0,7.8,4.63,7.8,10.72v41.19c0,5.85,3.66,10.72,7.8,10.72h29.73c4.39,0,7.8-4.87,7.8-10.72V54.6c0-5.85-3.41-10.72-7.8-10.72h-29.73c-4.14,0-7.8,4.87-7.8,10.72v44.84c0,5.85-3.41,10.72-7.8,10.72h-9.75c-4.39,0-7.8-4.87-7.8-10.72v-44.84c0-5.85-3.66-10.72-7.8-10.72h-29.73c-4.39,0-7.8,4.87-7.8,10.72v158.16c0,5.85,3.41,10.72,7.8,10.72Z"></path><path class="cls-1" d="M273.42,212.03c.73-5.36,3.9-9.26,8.04-9.26h16.57c2.44,0,4.75,1.65,6.32,4.18,2.47-.15,4.94-.28,7.46-.28,17.91,0,32.52,3.76,39.77,6.06.03-1.03,0-2.07-.18-3.13l-25.35-156.94c-.97-5.12-4.38-8.77-8.28-8.77h-55.08c-3.9,0-7.31,3.65-8.04,8.77l-25.1,157.19c-1.22,6.82,2.68,13.65,7.8,13.65h15.44c6.41-4.18,13.22-7.53,20.37-10.16l.26-1.3ZM282.19,142.33l5.85-49.71h4.87l5.61,49.71c.73,6.82-3.17,13.16-8.29,13.16s-9.02-6.34-8.04-13.16Z"></path><path class="cls-1" d="M403.79,206.89v-37.02c0-3.41,1.95-5.6,3.9-5.6,1.46,0,2.68.73,3.41,2.68l20.17,44.63c9.07,2.79,17.62,6.73,25.56,11.91h15.93c4.38,0,8.04-5.12,8.04-11.21V55.09c0-6.09-3.66-11.21-8.04-11.21h-29c-4.39,0-8.05,5.12-8.05,11.21v38.75c0,3.17-1.95,5.36-4.14,5.36-1.22,0-2.44-.97-3.41-2.44l-22.91-47.52c-1.46-3.17-4.14-5.36-7.07-5.36h-31.44c-4.63,0-8.29,5.12-8.29,11.21v157.19c0,.11.02.21.02.31,7.4-2.3,21.78-5.92,39.32-5.92,2.03,0,4,.13,5.99.22Z"></path><path class="cls-1" d="M498.1,223.48h86.76c2.93,0,5.61-3.41,5.61-7.8v-34.36c0-3.9-2.68-7.55-5.61-7.55h-41.43c-3.17,0-5.6-3.41-5.6-7.55v-.97c0-3.9,2.44-7.55,5.6-7.55h24.86c2.93,0,5.61-3.41,5.61-7.55v-33.87c0-4.14-2.68-7.55-5.61-7.55h-24.86c-3.17,0-5.6-3.41-5.6-7.8,0-3.9,2.44-7.55,5.6-7.55h41.43c2.93,0,5.61-3.41,5.61-7.55v-34.36c0-4.14-2.68-7.55-5.61-7.55h-15.34l-36.57,21.61c-1.57.96-3.34,1.47-5.07,1.47-2.29,0-4.36-.9-5.81-2.53l-15.86-17.86c-.7-.79-1.21-1.7-1.54-2.69h-6.57c-3.17,0-5.61,3.41-5.61,7.55v164.25c0,4.39,2.44,7.8,5.61,7.8Z"></path><path class="cls-1" d="M709.62,172.55c0-12.67-.49-26.56-8.53-34.61-3.41-3.41-4.14-10.48-1.46-14.62,5.85-9.99,6.58-22.66,6.58-34.85,0-29.97-15.84-44.6-47.77-44.6h-50.69c-4.63,0-8.29,5.12-8.29,11.45v156.7c0,6.34,3.65,11.45,8.29,11.45h37.8c-1.63-.79-2.72-2.49-2.6-4.39.15-2.41,2.12-4.27,4.51-4.27.06,0,.12,0,.18,0,.69.03,9.58.52,18.23,8.42,29.1-2.09,43.76-18.85,43.76-50.7ZM644.8,90.42c0-3.17,1.71-5.6,3.9-5.6h5.85c7.31,0,10.72,3.9,10.72,13.89s-2.93,14.87-10.48,14.87h-6.09c-2.19,0-3.9-2.44-3.9-5.6v-17.55ZM664.3,178.64c-1.46,2.19-4.63,3.17-9.02,3.17h-6.58c-2.19,0-3.9-2.68-3.9-5.6v-18.03c0-3.41,1.71-5.85,3.9-5.85h6.58c8.04,0,11.45,3.41,11.45,14.86,0,5.6-.73,9.75-2.44,11.45Z"></path><path class="cls-1" d="M354.81,218.68s-59.24-23.98-107.19,14.1c-40,31.76-88.15,74.75-121.29,83.21-33.14,8.46-89.56-6.18-88.85-50.69.7-44.51,24.68-45.92,24.68-45.92,0,0-27.5,1.04-30.32,47.06-2.82,46.02,50.07,81.99,90.97,82.69,40.9.71,39.49-7.05,39.49-7.05l-7.05,11.28s45.13,19.74,100.84-9.17c50.94-26.44,71.81-48.74,98.73-44.83,26.92-3.92,47.79,18.39,98.73,44.83,55.71,28.91,100.84,9.17,100.84,9.17l-7.05-11.28s-1.41,7.76,39.49,7.05c40.9-.7,93.79-36.67,90.97-82.69-2.82-46.02-30.32-47.06-30.32-47.06,0,0,23.98,1.41,24.68,45.92.71,44.51-55.71,59.15-88.85,50.69-33.14-8.46-81.3-51.45-121.29-83.21-47.95-38.08-107.19-14.1-107.19-14.1Z"></path></g></g></svg> 