<?xml version="1.0" encoding="UTF-8"?> <svg xmlns="http://www.w3.org/2000/svg" id="Groupe_23" data-name="Groupe 23" width="44.386" height="38.778" viewBox="0 0 44.386 38.778"><path id="Tracé_52" data-name="Tracé 52" d="M128.822,0l-4.515,10.889a13.4,13.4,0,0,1,1.706.913l2.809-6.774,10.286,24.8h2.084Z" transform="translate(-96.806)"></path><path id="Tracé_53" data-name="Tracé 53" d="M122.231,15.9,119,23.688,109.177,0,96.806,29.833h2.085l10.286-24.8L119,28.716l4.885-11.779a8.308,8.308,0,0,0-1.653-1.042" transform="translate(-96.806)"></path><path id="Tracé_54" data-name="Tracé 54" d="M119,36.853c-5.7,0-10.335-5.261-10.335-11.728a12.447,12.447,0,0,1,3.371-8.641l-.8-1.92a14.274,14.274,0,0,0-4.5,10.561c0,7.528,5.5,13.653,12.261,13.653,5.264,0,9.751-3.721,11.485-8.92l-1.866-.476c-1.506,4.366-5.245,7.471-9.619,7.471" transform="translate(-96.806)"></path><path id="Tracé_55" data-name="Tracé 55" d="M119,11.47a11.007,11.007,0,0,0-3,.43l.741,1.786A9.125,9.125,0,0,1,119,13.4c4.374,0,8.113,3.106,9.619,7.471l1.866-.476c-1.734-5.2-6.221-8.92-11.485-8.92" transform="translate(-96.806)"></path></svg> 