<svg xmlns="http://www.w3.org/2000/svg" width="225.051" height="84.723" viewBox="0 0 225.051 84.723">
  <g id="Groupe_31" data-name="Groupe 31" transform="translate(-789.563 -12.121)">
    <path id="Tracé_66" data-name="Tracé 66" d="M844.313,42.732V19.523a13.7,13.7,0,0,1,.384-3.841,2.424,2.424,0,0,1,1.432-1.606,11.945,11.945,0,0,1,3.422-.559v-1.4q-3.841.209-10.964.209h-4.958l-12.849,33.8L806.672,12.121q-4.609.209-11.034.209-3.841,0-6.075-.209v1.4a12.143,12.143,0,0,1,3.387.559,2.419,2.419,0,0,1,1.467,1.606,13.746,13.746,0,0,1,.384,3.841V50.948a28.057,28.057,0,0,1-.384,5.377,4.348,4.348,0,0,1-1.467,2.654,7.411,7.411,0,0,1-3.387,1.187v1.4q2.234-.21,6.075-.21,4.818,0,7.542.21v-1.4a11.306,11.306,0,0,1-4.539-1.222,4.149,4.149,0,0,1-1.816-2.793,31.192,31.192,0,0,1-.419-6.041V16.66l18.855,44.973h1.117l16.83-44V49.483c3.313-1.574.272-5.9,5.9-5.9C842.643,43.585,844.93,40.57,844.313,42.732Z" transform="translate(0 0)" fill="#fbeee5"/>
    <g id="Groupe_28" data-name="Groupe 28" transform="translate(821.031 41.221)">
      <path id="Tracé_67" data-name="Tracé 67" d="M936.7,149.269a40.09,40.09,0,0,1-1.571,8.59,10.213,10.213,0,0,1-3.6,4.888,10.415,10.415,0,0,1-3.946,2.549,13.372,13.372,0,0,1-4.714.873q-7.055,0-10.615-6.843t-3.561-17.04a45.314,45.314,0,0,1,1.354-11.572q-3.618.05-5.789.177v-1.4a13.9,13.9,0,0,0,3.666-.559,2.51,2.51,0,0,0,1.571-1.606,12.612,12.612,0,0,0,.419-3.841v-4.678c-.594.282-1.177.586-1.746.918a22.771,22.771,0,0,0-8.764,9.218,28.663,28.663,0,0,0-3.143,13.618,28.2,28.2,0,0,0,3.072,13.583,20.971,20.971,0,0,0,8.625,8.694,26.811,26.811,0,0,0,12.954,3,18.525,18.525,0,0,0,6.914-1.152,29.515,29.515,0,0,0,6.006-3.387,3.057,3.057,0,0,1,1.466-.559q.7,0,1.082.943a12.4,12.4,0,0,1,.594,3.177h1.606q-.279-4.958-.279-17.6Z" transform="translate(-896.267 -116.447)" fill="#e3c3bb"/>
      <path id="Tracé_68" data-name="Tracé 68" d="M981.783,112.613a13.5,13.5,0,0,1,4.818.873,11.855,11.855,0,0,1,4.051,2.549,11.264,11.264,0,0,1,3.561,4.749,34.874,34.874,0,0,1,1.676,7.892h1.606q0-12.151.279-16.9h-1.606q-.418,4.19-1.815,4.19a2.255,2.255,0,0,1-1.327-.628,24.233,24.233,0,0,0-5.727-3.352,18.98,18.98,0,0,0-7.088-1.187v1.91A13.275,13.275,0,0,1,981.783,112.613Z" transform="translate(-955.455 -110.797)" fill="#e3c3bb"/>
      <path id="Tracé_69" data-name="Tracé 69" d="M928.618,121.679a2.51,2.51,0,0,1-1.571,1.606,13.9,13.9,0,0,1-3.666.559v1.4q2.169-.128,5.789-.177a29.292,29.292,0,0,1,2.068-5.572q3.028-6.087,8.9-6.784V110.8h-.035a25.472,25.472,0,0,0-11.069,2.364v4.678A12.612,12.612,0,0,1,928.618,121.679Z" transform="translate(-915.384 -110.796)" fill="#e3c3bb"/>
    </g>
    <g id="Groupe_29" data-name="Groupe 29" transform="translate(884.444 37.245)">
      <path id="Tracé_70" data-name="Tracé 70" d="M1135.427,140.8a1.936,1.936,0,0,0,1.46.457v.619q-2.949-.117-3.893-.118-.826,0-3.657.118v-.619a1.257,1.257,0,0,0,1.106-.442,3.168,3.168,0,0,0,.31-1.681V129.96a3.626,3.626,0,0,0-.369-1.843,1.508,1.508,0,0,0-1.4-.6,2.471,2.471,0,0,0-1.9.914,3.938,3.938,0,0,0-.958,2.241v8.464a2.749,2.749,0,0,0,.369,1.666,1.645,1.645,0,0,0,1.342.457v.619q-2.831-.117-3.716-.118-.826,0-3.657.118v-.619a1.239,1.239,0,0,0,1.106-.457,3.173,3.173,0,0,0,.31-1.666V129.96a4.048,4.048,0,0,0-.324-1.843,1.306,1.306,0,0,0-1.268-.6,2.568,2.568,0,0,0-2.02.988,3.627,3.627,0,0,0-.84,2.433v8.2a3.176,3.176,0,0,0,.309,1.666,1.24,1.24,0,0,0,1.106.457v.619q-2.6-.117-3.48-.118t-4.07.118v-.619a1.931,1.931,0,0,0,1.474-.457,2.526,2.526,0,0,0,.413-1.666v-9.29a3.657,3.657,0,0,0-.413-1.976,1.642,1.642,0,0,0-1.474-.619v-.619q.944.088,1.828.088a18.523,18.523,0,0,0,4.306-.413v2.654a4.636,4.636,0,0,1,4.571-2.743,4.1,4.1,0,0,1,3.244,1.15,3.211,3.211,0,0,1,.737,1.769,4.8,4.8,0,0,1,2.005-2.256,6.03,6.03,0,0,1,2.89-.664,4.1,4.1,0,0,1,3.244,1.15,3.2,3.2,0,0,1,.678,1.445A11.23,11.23,0,0,1,1135,131.2v7.933A2.46,2.46,0,0,0,1135.427,140.8Z" transform="translate(-1111.289 -117.692)" fill="#fbeee5"/>
      <path id="Tracé_71" data-name="Tracé 71" d="M1203.218,141.108a3.562,3.562,0,0,1-.929-2.565,3.417,3.417,0,0,1,.693-2.2,4.736,4.736,0,0,1,1.681-1.342,24.881,24.881,0,0,1,2.521-1,13.113,13.113,0,0,0,2.374-1.017,1.4,1.4,0,0,0,.752-1.253v-2.3a2.94,2.94,0,0,0-.575-1.932,2.189,2.189,0,0,0-1.785-.693,2.991,2.991,0,0,0-2.153.708,2.743,2.743,0,0,1,1.283.885,2.2,2.2,0,0,1,.457,1.386,2,2,0,0,1-.678,1.593,2.43,2.43,0,0,1-1.652.59,1.988,1.988,0,0,1-1.592-.649,2.643,2.643,0,0,1-.162-3.023,3.952,3.952,0,0,1,1.224-1.076,6.809,6.809,0,0,1,1.961-.737,11.48,11.48,0,0,1,2.551-.265,9.439,9.439,0,0,1,2.507.295,3.937,3.937,0,0,1,1.77,1,3.253,3.253,0,0,1,.87,1.593,11.746,11.746,0,0,1,.221,2.566v8.022a2.675,2.675,0,0,0,.133,1,.51.51,0,0,0,.516.295,1.823,1.823,0,0,0,1.061-.5l.295.5a4.941,4.941,0,0,1-3.244,1.091,3.164,3.164,0,0,1-2.271-.649,2.447,2.447,0,0,1-.678-1.74,4.782,4.782,0,0,1-4.335,2.389A3.723,3.723,0,0,1,1203.218,141.108Zm7.093-2.123v-6.046a4.5,4.5,0,0,1-1.5,1.3,7.18,7.18,0,0,0-1.74,1.475,3.33,3.33,0,0,0-.59,2.123,2.664,2.664,0,0,0,.5,1.784,1.674,1.674,0,0,0,1.327.575A2.443,2.443,0,0,0,1210.31,138.985Z" transform="translate(-1175.452 -117.692)" fill="#fbeee5"/>
      <path id="Tracé_72" data-name="Tracé 72" d="M1256.109,100.544a12.984,12.984,0,0,0,3.067,2.551l-.236.413a28.177,28.177,0,0,1-3.318-1.017,14.178,14.178,0,0,1-2.58-1.224,11.7,11.7,0,0,1-2.079,1.239,16.185,16.185,0,0,1-2.64,1l-.236-.413a13.078,13.078,0,0,0,3.052-2.521,13.827,13.827,0,0,0,2.227-3.259h.531A13.92,13.92,0,0,0,1256.109,100.544Zm-.266,18.211a2.456,2.456,0,0,0,.428,1.666,1.934,1.934,0,0,0,1.459.457v.619q-2.949-.117-3.922-.118-.914,0-4.1.118v-.619a1.931,1.931,0,0,0,1.474-.457,2.526,2.526,0,0,0,.413-1.666v-9.29a3.657,3.657,0,0,0-.413-1.976,1.642,1.642,0,0,0-1.474-.619v-.619q.943.088,1.828.088a18.52,18.52,0,0,0,4.306-.413Z" transform="translate(-1207.745 -97.315)" fill="#fbeee5"/>
      <path id="Tracé_73" data-name="Tracé 73" d="M1289.311,116.052h3.48v.59h-3.48v11.915a1.966,1.966,0,0,0,.31,1.253,1.22,1.22,0,0,0,.988.369q1.268,0,2.006-1.769l.5.265a4.075,4.075,0,0,1-4.04,3.038,4,4,0,0,1-2.949-1,3.178,3.178,0,0,1-.841-1.548,11.533,11.533,0,0,1-.221-2.551v-9.968h-2.477v-.59h2.477v-3.893a9.021,9.021,0,0,0,4.247-.944Z" transform="translate(-1232.069 -107.116)" fill="#fbeee5"/>
      <path id="Tracé_74" data-name="Tracé 74" d="M1332.436,127.011a2.858,2.858,0,0,1,.679,1.917,2.54,2.54,0,0,1-.634,1.784,2.152,2.152,0,0,1-1.666.693,2.332,2.332,0,0,1-1.592-.516,1.73,1.73,0,0,1-.59-1.371,2.678,2.678,0,0,1,1.3-2.3,1.584,1.584,0,0,0-.354-.029,1.539,1.539,0,0,0-.472.059,2.809,2.809,0,0,0-1.9,1.357,4.328,4.328,0,0,0-.781,2.418v7.815a2.3,2.3,0,0,0,.664,1.887,3.371,3.371,0,0,0,2.108.531v.619a6.326,6.326,0,0,1-.678-.03q-3.008-.088-4.01-.088-.8,0-3.627.088a4.872,4.872,0,0,1-.59.03v-.619a1.932,1.932,0,0,0,1.475-.457,2.526,2.526,0,0,0,.413-1.666v-9.29a3.658,3.658,0,0,0-.413-1.976,1.642,1.642,0,0,0-1.475-.619v-.619q.944.088,1.828.088a18.522,18.522,0,0,0,4.306-.413v2.743a5,5,0,0,1,1.622-2.05,3.93,3.93,0,0,1,2.388-.782A2.488,2.488,0,0,1,1332.436,127.011Z" transform="translate(-1258.651 -117.692)" fill="#fbeee5"/>
      <path id="Tracé_75" data-name="Tracé 75" d="M1379.065,137.51l.531.177a7.034,7.034,0,0,1-2.108,3.259,5.516,5.516,0,0,1-3.79,1.342,6.442,6.442,0,0,1-4.969-1.991q-1.844-1.991-1.843-5.883a8.581,8.581,0,0,1,1.976-6.09,6.853,6.853,0,0,1,5.249-2.109q5.544,0,5.544,6.547h-8.287q-.03.442-.03,1.386a8.392,8.392,0,0,0,.546,3.244,4.124,4.124,0,0,0,1.415,1.888,3.272,3.272,0,0,0,1.873.59A4.439,4.439,0,0,0,1379.065,137.51Zm-6.886-9.364a10.527,10.527,0,0,0-.87,4.055h4.63a11.263,11.263,0,0,0-.457-3.849q-.516-1.519-1.548-1.519A2.026,2.026,0,0,0,1372.179,128.147Z" transform="translate(-1291.507 -117.692)" fill="#fbeee5"/>
      <path id="Tracé_76" data-name="Tracé 76" d="M1425.439,126.5a5.042,5.042,0,0,1,1.445.634.956.956,0,0,0,.531.206.55.55,0,0,0,.457-.28,1.8,1.8,0,0,0,.25-.811h.62q-.118,1.5-.118,5.19H1428a7.474,7.474,0,0,0-1.165-3.259,2.969,2.969,0,0,0-2.61-1.312,2.141,2.141,0,0,0-1.459.5,1.742,1.742,0,0,0-.575,1.386,2.431,2.431,0,0,0,.678,1.725,14.87,14.87,0,0,0,2.123,1.755l.855.619a15.246,15.246,0,0,1,2.654,2.418,4.1,4.1,0,0,1,.855,2.654,3.73,3.73,0,0,1-.752,2.3,4.76,4.76,0,0,1-2.021,1.534,7.187,7.187,0,0,1-2.8.531,5.768,5.768,0,0,1-2.772-.619,14.452,14.452,0,0,0-1.357-.619.453.453,0,0,0-.516.191,2.042,2.042,0,0,0-.339.841h-.62q.118-1.681.118-5.9h.619q.59,5.426,3.981,5.426a2.172,2.172,0,0,0,1.46-.516,1.96,1.96,0,0,0,.6-1.578,2.933,2.933,0,0,0-.369-1.475,4.582,4.582,0,0,0-.929-1.15q-.561-.5-1.681-1.386-1.327-1.062-2.02-1.71a6.119,6.119,0,0,1-1.18-1.534,4.028,4.028,0,0,1-.487-1.976,3.507,3.507,0,0,1,1.474-2.979,5.881,5.881,0,0,1,3.6-1.091A7.238,7.238,0,0,1,1425.439,126.5Z" transform="translate(-1327.677 -117.692)" fill="#fbeee5"/>
    </g>
    <g id="Groupe_32" data-name="Groupe 32" transform="translate(884.797 68.102)">
      <path id="Tracé_77" data-name="Tracé 77" d="M1121.865,227.381a5.393,5.393,0,0,1,1.622.649,3.481,3.481,0,0,1,1.194,1.194,3.049,3.049,0,0,1,.428,1.578,2.325,2.325,0,0,1-.649,1.7,2.249,2.249,0,0,1-1.681.664,2.292,2.292,0,0,1-1.651-.59,2.094,2.094,0,0,1-.62-1.592,2.27,2.27,0,0,1,.561-1.534,2.821,2.821,0,0,1,1.386-.885,1.589,1.589,0,0,0-.723-.516,2.842,2.842,0,0,0-1.047-.192,3.035,3.035,0,0,0-2.758,1.932,11.128,11.128,0,0,0-.988,5.057,7.26,7.26,0,0,0,1.12,4.542,3.463,3.463,0,0,0,2.8,1.386,4.34,4.34,0,0,0,2.02-.531,4.965,4.965,0,0,0,1.843-1.858l.5.177a7.381,7.381,0,0,1-2.064,3.288,5.364,5.364,0,0,1-3.8,1.372,6.547,6.547,0,0,1-4.955-2.005q-1.917-2.005-1.917-5.957a9.544,9.544,0,0,1,.944-4.424,6.473,6.473,0,0,1,2.6-2.758,7.566,7.566,0,0,1,3.775-.929A8.746,8.746,0,0,1,1121.865,227.381Z" transform="translate(-1112.487 -219.713)" fill="#e3c3bb"/>
      <path id="Tracé_78" data-name="Tracé 78" d="M1174.72,229.076q1.917,1.932,1.917,6.119t-1.917,6.1a8.288,8.288,0,0,1-10.6,0q-1.932-1.917-1.932-6.1t1.932-6.119a8.24,8.24,0,0,1,10.6,0Zm-7.328.5a21.3,21.3,0,0,0,0,11.221q.752,1.829,2.02,1.829,1.3,0,2.035-1.814a15.906,15.906,0,0,0,.737-5.618,15.74,15.74,0,0,0-.752-5.632q-.752-1.828-2.02-1.828T1167.391,229.578Z" transform="translate(-1147.529 -219.713)" fill="#e3c3bb"/>
      <path id="Tracé_79" data-name="Tracé 79" d="M1222.12,222.293a2.525,2.525,0,0,0,.413,1.667,1.93,1.93,0,0,0,1.475.457v.619q-3.067-.117-3.952-.118-1,0-4.07.118v-.619a1.938,1.938,0,0,0,1.46-.457,2.462,2.462,0,0,0,.428-1.667v-16.81a3.553,3.553,0,0,0-.428-1.976,1.648,1.648,0,0,0-1.46-.619v-.62q.944.088,1.828.089a18.978,18.978,0,0,0,4.306-.413Z" transform="translate(-1185.463 -201.944)" fill="#e3c3bb"/>
      <path id="Tracé_80" data-name="Tracé 80" d="M1260.319,229.076q1.917,1.932,1.917,6.119t-1.917,6.1a8.288,8.288,0,0,1-10.6,0q-1.932-1.917-1.932-6.1t1.932-6.119a8.241,8.241,0,0,1,10.6,0Zm-7.329.5a21.3,21.3,0,0,0,0,11.221q.752,1.829,2.02,1.829,1.3,0,2.035-1.814a15.9,15.9,0,0,0,.737-5.618,15.735,15.735,0,0,0-.752-5.632q-.752-1.828-2.02-1.828T1252.99,229.578Z" transform="translate(-1207.884 -219.713)" fill="#e3c3bb"/>
      <path id="Tracé_81" data-name="Tracé 81" d="M1315.134,227.941a2.858,2.858,0,0,1,.679,1.917,2.542,2.542,0,0,1-.634,1.784,2.153,2.153,0,0,1-1.667.693,2.332,2.332,0,0,1-1.592-.516,1.729,1.729,0,0,1-.59-1.371,2.679,2.679,0,0,1,1.3-2.3,1.6,1.6,0,0,0-.354-.029,1.538,1.538,0,0,0-.472.059,2.809,2.809,0,0,0-1.9,1.356,4.331,4.331,0,0,0-.781,2.418v7.815a2.3,2.3,0,0,0,.664,1.888,3.374,3.374,0,0,0,2.108.531v.619a6.343,6.343,0,0,1-.678-.029q-3.008-.089-4.01-.088-.8,0-3.627.088a4.884,4.884,0,0,1-.59.029v-.619a1.932,1.932,0,0,0,1.475-.457,2.526,2.526,0,0,0,.412-1.667v-9.29a3.656,3.656,0,0,0-.412-1.976,1.643,1.643,0,0,0-1.475-.619v-.62q.944.088,1.828.089a18.5,18.5,0,0,0,4.306-.413v2.743a5,5,0,0,1,1.622-2.05,3.929,3.929,0,0,1,2.388-.781A2.487,2.487,0,0,1,1315.134,227.941Z" transform="translate(-1246.804 -219.713)" fill="#e3c3bb"/>
      <path id="Tracé_82" data-name="Tracé 82" d="M1355.817,222.857a2.458,2.458,0,0,0,.428,1.667,1.935,1.935,0,0,0,1.46.457v.619q-2.949-.117-3.922-.118-.915,0-4.1.118v-.619a1.931,1.931,0,0,0,1.475-.457,2.526,2.526,0,0,0,.413-1.667v-9.29a3.655,3.655,0,0,0-.413-1.976,1.642,1.642,0,0,0-1.475-.619v-.62q.944.088,1.828.089a18.5,18.5,0,0,0,4.306-.413Zm-.339-19.508a2.283,2.283,0,0,1,0,3.333,3.483,3.483,0,0,1-3.922,0,2.283,2.283,0,0,1,0-3.333,3.483,3.483,0,0,1,3.922,0Z" transform="translate(-1279.731 -202.508)" fill="#e3c3bb"/>
      <path id="Tracé_83" data-name="Tracé 83" d="M1390.637,227.425a5.044,5.044,0,0,1,1.445.634.953.953,0,0,0,.531.206.549.549,0,0,0,.457-.28,1.8,1.8,0,0,0,.251-.811h.619q-.118,1.5-.118,5.191h-.619a7.475,7.475,0,0,0-1.165-3.259,2.969,2.969,0,0,0-2.61-1.312,2.141,2.141,0,0,0-1.46.5,1.743,1.743,0,0,0-.575,1.386,2.432,2.432,0,0,0,.678,1.726,14.862,14.862,0,0,0,2.123,1.754l.855.62a15.253,15.253,0,0,1,2.654,2.418,4.1,4.1,0,0,1,.855,2.654,3.732,3.732,0,0,1-.752,2.3,4.763,4.763,0,0,1-2.02,1.534,7.194,7.194,0,0,1-2.8.531,5.773,5.773,0,0,1-2.772-.62,14.521,14.521,0,0,0-1.357-.619.454.454,0,0,0-.516.192,2.045,2.045,0,0,0-.339.84h-.619q.117-1.681.118-5.9h.619q.59,5.427,3.981,5.427a2.173,2.173,0,0,0,1.46-.516,1.962,1.962,0,0,0,.6-1.578,2.934,2.934,0,0,0-.369-1.475,4.564,4.564,0,0,0-.929-1.15q-.56-.5-1.681-1.386-1.327-1.062-2.02-1.71a6.119,6.119,0,0,1-1.18-1.534,4.031,4.031,0,0,1-.487-1.976,3.507,3.507,0,0,1,1.475-2.978,5.881,5.881,0,0,1,3.6-1.091A7.237,7.237,0,0,1,1390.637,227.425Z" transform="translate(-1303.492 -219.713)" fill="#e3c3bb"/>
      <path id="Tracé_84" data-name="Tracé 84" d="M1431.606,216.981h3.48v.59h-3.48v11.914a1.966,1.966,0,0,0,.31,1.253,1.22,1.22,0,0,0,.988.369q1.268,0,2.006-1.769l.5.266a4.075,4.075,0,0,1-4.04,3.038,4,4,0,0,1-2.949-1,3.175,3.175,0,0,1-.841-1.548,11.528,11.528,0,0,1-.221-2.551v-9.968h-2.477v-.59h2.477v-3.893a9.024,9.024,0,0,0,4.247-.944Z" transform="translate(-1332.753 -209.137)" fill="#e3c3bb"/>
      <path id="Tracé_85" data-name="Tracé 85" d="M1475.661,238.44l.531.177a7.033,7.033,0,0,1-2.109,3.259,5.515,5.515,0,0,1-3.79,1.342,6.442,6.442,0,0,1-4.969-1.991q-1.844-1.991-1.843-5.884a8.583,8.583,0,0,1,1.976-6.09,6.854,6.854,0,0,1,5.249-2.108q5.544,0,5.544,6.547h-8.287q-.03.442-.03,1.386a8.4,8.4,0,0,0,.546,3.244,4.122,4.122,0,0,0,1.416,1.887,3.272,3.272,0,0,0,1.873.59A4.439,4.439,0,0,0,1475.661,238.44Zm-6.886-9.363a10.534,10.534,0,0,0-.87,4.055h4.63a11.253,11.253,0,0,0-.457-3.848q-.516-1.519-1.548-1.519A2.027,2.027,0,0,0,1468.775,229.076Z" transform="translate(-1359.969 -219.713)" fill="#e3c3bb"/>
      <path id="Tracé_86" data-name="Tracé 86" d="M1522.035,227.425a5.047,5.047,0,0,1,1.445.634.954.954,0,0,0,.531.206.55.55,0,0,0,.457-.28,1.8,1.8,0,0,0,.25-.811h.62q-.119,1.5-.118,5.191h-.619a7.478,7.478,0,0,0-1.165-3.259,2.969,2.969,0,0,0-2.61-1.312,2.14,2.14,0,0,0-1.459.5,1.742,1.742,0,0,0-.575,1.386,2.432,2.432,0,0,0,.678,1.726,14.867,14.867,0,0,0,2.124,1.754l.855.62a15.265,15.265,0,0,1,2.654,2.418,4.093,4.093,0,0,1,.855,2.654,3.731,3.731,0,0,1-.752,2.3,4.765,4.765,0,0,1-2.02,1.534,7.193,7.193,0,0,1-2.8.531,5.772,5.772,0,0,1-2.772-.62,14.49,14.49,0,0,0-1.357-.619.454.454,0,0,0-.516.192,2.039,2.039,0,0,0-.339.84h-.62q.118-1.681.118-5.9h.619q.59,5.427,3.981,5.427a2.172,2.172,0,0,0,1.46-.516,1.962,1.962,0,0,0,.6-1.578,2.936,2.936,0,0,0-.369-1.475,4.571,4.571,0,0,0-.929-1.15q-.561-.5-1.681-1.386-1.327-1.062-2.02-1.71a6.1,6.1,0,0,1-1.18-1.534,4.029,4.029,0,0,1-.487-1.976,3.507,3.507,0,0,1,1.475-2.978,5.881,5.881,0,0,1,3.6-1.091A7.238,7.238,0,0,1,1522.035,227.425Z" transform="translate(-1396.139 -219.713)" fill="#e3c3bb"/>
    </g>
    <line id="Ligne_1" data-name="Ligne 1" y2="84.723" transform="translate(872.805 12.121)" fill="none" stroke="#e3c3bb" stroke-miterlimit="10" stroke-width="1"/>
  </g>
</svg>
