<?xml version="1.0" encoding="UTF-8" standalone="no"?>
<!DOCTYPE svg PUBLIC "-//W3C//DTD SVG 1.1//EN" "http://www.w3.org/Graphics/SVG/1.1/DTD/svg11.dtd">
<svg width="100%" height="100%" viewBox="0 0 294 94" version="1.1" xmlns="http://www.w3.org/2000/svg" xmlns:xlink="http://www.w3.org/1999/xlink" xml:space="preserve" xmlns:serif="http://www.serif.com/" style="fill-rule:evenodd;clip-rule:evenodd;stroke-linejoin:round;stroke-miterlimit:2;">
    <g transform="matrix(1.23698,0,0,1.23698,10.3505,63.4029)">
        <g>
            <path d="M0,-28.41L0,-3.122L13.864,-3.122L13.864,0L-3.461,0L-3.461,-28.41L0,-28.41Z" style="fill:white;fill-rule:nonzero;"/>
        </g>
    </g>
    <g transform="matrix(1.23698,0,0,1.23698,52.2052,57.9417)">
        <g>
            <path d="M0,-19.58C-1.268,-16.042 -2.478,-12.83 -3.633,-9.938L-4.695,-7.264L4.722,-7.264L3.646,-9.936C2.478,-12.878 1.292,-16.094 0.085,-19.58L0,-19.58ZM-13.039,4.415L-1.468,-23.995L1.529,-23.995L13.098,4.415L9.342,4.415L5.948,-4.142L-5.93,-4.142L-9.322,4.415L-13.039,4.415Z" style="fill:white;fill-rule:nonzero;"/>
        </g>
    </g>
    <g transform="matrix(1.23698,0,0,1.23698,118.322,28.2601)">
        <g>
            <path d="M0,28.41L0,0L3.46,0L3.46,14.034L3.503,14.034L16.561,0L20.303,0L7.225,14.141L21.413,28.41L17.348,28.41L3.503,14.503L3.46,14.503L3.46,28.41L0,28.41Z" style="fill:white;fill-rule:nonzero;"/>
        </g>
    </g>
    <g transform="matrix(1.23698,0,0,1.23698,176.13,57.5988)">
        <g>
            <path d="M0,-19.026C-0.225,-17.724 -0.758,-15.444 -1.59,-12.188L-5.987,4.692L-9.507,4.692L-18.206,-23.718L-14.747,-23.718L-9.864,-7.049C-9.087,-4.376 -8.427,-1.969 -7.875,0.169L-7.795,0.169C-7.51,-1.149 -7.207,-2.427 -6.873,-3.674C-6.546,-4.921 -6.25,-6.033 -6,-7.008L-1.687,-23.718L1.771,-23.718L6.061,-7.008C7.109,-2.99 7.704,-0.597 7.85,0.169L7.935,0.169C8.427,-1.812 9.087,-4.219 9.925,-7.049L14.808,-23.718L18.271,-23.718L9.561,4.692L6.048,4.692L1.662,-12.188C0.861,-15.332 0.34,-17.608 0.085,-19.026L0,-19.026Z" style="fill:white;fill-rule:nonzero;"/>
        </g>
    </g>
    <g transform="matrix(1.23698,0,0,1.23698,219.518,57.9417)">
        <g>
            <path d="M0,-19.58C-1.269,-16.042 -2.476,-12.83 -3.629,-9.938L-4.689,-7.264L4.725,-7.264L3.646,-9.936C2.48,-12.878 1.291,-16.094 0.084,-19.58L0,-19.58ZM-13.037,4.415L-1.462,-23.995L1.529,-23.995L13.104,4.415L9.342,4.415L5.951,-4.142L-5.928,-4.142L-9.318,4.415L-13.037,4.415Z" style="fill:white;fill-rule:nonzero;"/>
        </g>
    </g>
    <g transform="matrix(1.23698,0,0,1.23698,250.585,28.2601)">
        <g>
            <path d="M0,28.41L-3.459,28.41L-3.459,0L13.485,0L13.485,3.122L0,3.122L0,12.295L11.957,12.295L11.957,15.416L0,15.416L0,28.41Z" style="fill:white;fill-rule:nonzero;"/>
        </g>
    </g>
    <g transform="matrix(-1.23698,0,0,1.23698,317.14,-129.855)">
        <g>
            <rect x="179.602" y="117.401" width="2.33" height="50.603" style="fill:white;"/>
        </g>
    </g>
</svg>
