<?xml version="1.0" encoding="UTF-8"?> <!-- Generator: Adobe Illustrator 23.1.1, SVG Export Plug-In . SVG Version: 6.00 Build 0) --> <svg xmlns="http://www.w3.org/2000/svg" xmlns:xlink="http://www.w3.org/1999/xlink" id="Calque_1" x="0px" y="0px" viewBox="0 0 287.9 43.6" style="enable-background:new 0 0 287.9 43.6;" xml:space="preserve"> <style type="text/css"> .st0{fill:#008FDA;} .st1{fill:#111E72;} .st2{fill:#FFE800;} .st3{fill:#008631;} .st4{fill:#D9000D;} .st5{fill:#005B20;} .st6{fill:#D4006B;} </style> <g transform="translate(-19.158 -29.697)"> <g transform="translate(132.642 29.697)"> <path d="M126.1,22.2C126.1,22.2,126.1,22.1,126.1,22.2l-5-0.1c-1.8,2-4.7,0.7-5.1,0.4c-0.9-0.7-1.5-1.8-1.5-3h11.8 c0-0.3,0.1-0.6,0.1-1s0.1-0.9,0.1-1.3c0-1.2-0.2-2.3-0.5-3.4c-0.3-1-0.8-1.9-1.5-2.7c-0.7-0.8-1.5-1.4-2.5-1.8 c-1.1-0.5-2.2-0.7-3.3-0.7c-1.3,0-2.6,0.2-3.8,0.7c-1,0.5-2,1.2-2.7,2c-0.7,0.9-1.3,1.9-1.7,3c-0.7,2.4-0.7,5,0,7.4 c0.3,1.1,0.9,2.1,1.7,2.9c0.4,0.5,0.9,0.8,1.4,1.2c0,0,0,0,0,0c0.4,0.3,0.8,0.5,1.2,0.7c1.2,0.5,2.5,0.8,3.8,0.7 c1.2,0,2.3-0.2,3.4-0.7c1-0.4,1.8-1,2.5-1.8C125.2,24.1,125.7,23.2,126.1,22.2z M115.7,13.3c0.7-0.7,1.7-1,2.7-1 c1,0,1.9,0.3,2.6,1c0.6,0.8,0.9,1.7,0.9,2.7h-7.3C114.7,15.1,115,14.1,115.7,13.3L115.7,13.3z"></path> <path d="M13.8,26.1c0-0.4,0-0.7,0-1.1c0-0.3,0-0.7,0-1c0-0.4-0.1-0.7-0.1-1.1H5V0.5C4.2,0.4,3.3,0.3,2.5,0.3 C1.6,0.3,0.8,0.4,0,0.5v26.7h13.7C13.7,26.9,13.8,26.5,13.8,26.1z"></path> <path d="M28.9,9v14.1c-0.7,0.2-1.4,0.3-2.2,0.2c-0.6,0-1.1-0.1-1.6-0.2c-0.5-0.1-0.9-0.4-1.2-0.8c-0.3-0.4-0.6-0.9-0.7-1.5 c-0.2-0.8-0.2-1.6-0.2-2.3V9c-1.6-0.3-3.3-0.3-4.9,0v9.5c-0.1,1.6,0.2,3.1,0.7,4.6c0.4,1,1.1,2,2,2.6c0.9,0.6,1.8,1,2.9,1.2 c1.1,0.2,2.3,0.3,3.4,0.3c1.3,0,2.6-0.1,3.8-0.4c1-0.2,2-0.4,2.9-0.7V9c-0.8-0.1-1.6-0.2-2.5-0.2C30.5,8.8,29.7,8.9,28.9,9z"></path> <path d="M49.3,8.6c-0.6,0-1.2,0.1-1.8,0.3C47,9,46.5,9.3,46,9.6c-0.4,0.3-0.8,0.6-1.1,0.9c-0.3,0.3-0.6,0.7-0.8,1 c0-0.2,0-2.4-0.1-2.5C43.7,9,43.3,8.9,43,8.9c-0.3,0-1.1-0.1-1.5-0.1c-0.4,0-0.7,0-1.1,0.1c-0.3,0-0.7,0.1-1,0.2v18.2h4.9v-9.6 c0-0.8,0.1-1.6,0.3-2.4c0.2-0.5,0.4-1,0.8-1.4c0.3-0.3,0.7-0.6,1.1-0.7c0.4-0.1,0.8-0.2,1.2-0.2c0.8-0.1,1.6,0.3,2,1 c0.4,0.9,0.6,1.9,0.6,2.9v10.3h4.9V15.5c0-2.4-0.5-4.1-1.5-5.3C52.6,9.1,51,8.5,49.3,8.6z"></path> <path d="M74.7,11.1c-0.7-0.8-1.5-1.4-2.5-1.8c-1.1-0.5-2.2-0.7-3.3-0.7c-1.3,0-2.6,0.2-3.8,0.7c-1,0.5-2,1.2-2.7,2 c-0.7,0.9-1.3,1.9-1.7,3c-0.4,1.2-0.6,2.5-0.6,3.7c0,1.3,0.2,2.5,0.5,3.7c0.3,1.1,0.9,2.1,1.7,2.9c0.4,0.5,0.9,0.8,1.4,1.2 c0,0,0,0,0,0c0.4,0.3,0.8,0.5,1.2,0.7c1.2,0.5,2.5,0.8,3.8,0.7c1.2,0,2.3-0.2,3.4-0.7c1-0.4,1.8-1,2.5-1.8 c0.7-0.8,1.2-1.7,1.6-2.7c0,0,0,0,0-0.1h-5c-1.8,2-4.7,0.7-5.1,0.4c-0.9-0.7-1.5-1.8-1.5-3h11.8c0-0.3,0.1-0.6,0.1-1 s0.1-0.9,0.1-1.3c0-1.2-0.2-2.3-0.5-3.4C75.9,12.8,75.4,11.9,74.7,11.1z M64.9,16.1c0-1,0.4-2,1.1-2.7c0.7-0.7,1.7-1,2.7-1 c1,0,1.9,0.3,2.6,1c0.6,0.8,0.9,1.7,0.9,2.7L64.9,16.1z"></path> <path d="M173.9,13.8c-0.3-1-0.8-1.9-1.5-2.7c-0.7-0.8-1.5-1.4-2.5-1.8c-1.1-0.5-2.2-0.7-3.3-0.7c-1.3,0-2.6,0.2-3.8,0.7 c-1,0.5-2,1.2-2.7,2c-0.7,0.9-1.3,1.9-1.7,3c-0.4,1.2-0.6,2.5-0.6,3.7c0,1.3,0.2,2.5,0.5,3.7c0.3,1.1,0.9,2.1,1.7,2.9 c0.4,0.5,0.9,0.8,1.4,1.2c0,0,0,0,0,0c0.4,0.3,0.8,0.5,1.2,0.7c1.2,0.5,2.5,0.8,3.8,0.7c1.2,0,2.3-0.2,3.4-0.7 c1-0.4,1.8-1,2.5-1.8c0.7-0.8,1.2-1.7,1.6-2.7c0,0,0,0,0-0.1h-5c-1.8,2-4.7,0.7-5.1,0.4c-0.9-0.7-1.5-1.8-1.5-3h11.8 c0-0.3,0.1-0.6,0.1-1s0.1-0.9,0.1-1.3C174.4,16.1,174.2,14.9,173.9,13.8z M162.5,16.1c0-1,0.4-2,1.1-2.7c0.7-0.7,1.7-1,2.7-1 c1,0,1.9,0.3,2.6,1c0.6,0.8,0.9,1.7,0.9,2.7L162.5,16.1z"></path> <path d="M92.2,26.3c0-0.2,0-0.4,0-0.6c0-0.4,0-0.9-0.1-1.3c-0.1-0.5-0.2-0.9-0.3-1.4c-0.3,0-0.6,0.1-0.9,0.2 c-0.3,0.1-0.7,0.1-1,0.1c-0.4,0-0.8,0-1.1-0.1c-0.3-0.1-0.6-0.3-0.8-0.5c-0.2-0.3-0.4-0.7-0.5-1c-0.1-0.6-0.2-1.2-0.2-1.7V9h4.6 c0-0.2,0-3.8,0-3.8h-4.6V0H86L80,7.9V9h2.4v11.9c0,2.2,0.6,3.8,1.7,4.8c1.4,1.1,3.1,1.6,4.8,1.5c1.1,0,2.2-0.1,3.3-0.4 C92.2,26.7,92.2,26.5,92.2,26.3z"></path> <path d="M106.7,26.8c0-0.2,0-0.3,0.1-0.5s0-0.4,0-0.6c0-0.4,0-0.9-0.1-1.3c-0.1-0.5-0.2-0.9-0.3-1.4c-0.3,0-0.6,0.1-0.9,0.2 c-0.3,0.1-0.7,0.1-1,0.1c-0.4,0-0.8,0-1.1-0.1c-0.3-0.1-0.6-0.3-0.8-0.5c-0.2-0.3-0.4-0.7-0.5-1c-0.1-0.6-0.2-1.2-0.2-1.7V9h4.6 V5.3h-4.6V0h-1.2l-6.1,7.9V9h2.4v11.9c0,2.2,0.6,3.8,1.7,4.8c1.4,1.1,3.1,1.6,4.8,1.5C104.5,27.2,105.7,27.1,106.7,26.8z"></path> <path d="M142.5,9c-0.2-0.1-0.4-0.1-0.7-0.1c-0.3,0-0.6,0-0.8,0c-1,0-2,0.3-2.8,0.9c-0.7,0.5-1.4,1.2-1.9,1.9c0-0.2,0-2.4-0.1-2.5 c-0.3-0.1-0.7-0.1-1-0.2s-1.1-0.1-1.5-0.1c-0.3,0-0.7,0-1,0.1c-0.3,0-0.6,0.1-1,0.2v18.2h4.9v-8.8c0-1,0.1-2,0.4-2.9 c0.2-0.6,0.6-1.1,1.1-1.6c0.4-0.3,0.9-0.6,1.4-0.6c0.4-0.1,0.9-0.1,1.3-0.1h0.6c0.3,0,0.6,0,0.9,0.1c0.1-0.4,0.2-0.9,0.2-1.3 c0-0.5,0.1-0.9,0.1-1.3c0-0.3,0-0.6,0-0.9C142.6,9.5,142.5,9.2,142.5,9z"></path> <path d="M148.5,6.1c0.5,0,0.9,0,1.3,0c0.4,0,0.8,0,1.3,0c0.4,0,0.9-0.1,1.3-0.1c0.1-0.4,0.1-0.8,0.1-1.2c0-0.4,0-0.8,0-1.1 c0-0.4,0-0.8,0-1.2c0-0.4-0.1-0.8-0.1-1.2c-0.4-0.1-0.8-0.1-1.3-0.2c-0.5,0-0.9-0.1-1.3-0.1c-0.4,0-0.8,0-1.2,0.1 s-0.9,0.1-1.3,0.2c-0.1,0.8-0.2,1.5-0.2,2.3c0,0.8,0.1,1.6,0.2,2.3C147.6,6.1,148.1,6.1,148.5,6.1z"></path> <path d="M145.4,10.9c0,0.3,0,0.6,0.1,1c0,0.3,0.1,0.6,0.2,1h2.3v14.5h4.8V9h-7.2C145.5,9.6,145.4,10.3,145.4,10.9z"></path> <path d="M1.8,36.3c-0.3,0-0.6,0-0.9,0s-0.6,0-0.8,0.1v7.1c0.2,0,0.5,0.1,0.8,0.1s0.6,0,0.9,0c1,0.1,2-0.2,2.8-0.9 C5.2,42,5.6,41,5.5,40c0.2-1.8-1.1-3.5-2.9-3.7C2.3,36.2,2,36.2,1.8,36.3L1.8,36.3z M4.2,41.3c-0.1,0.3-0.3,0.6-0.5,0.9 c-0.2,0.2-0.5,0.4-0.8,0.5c-0.3,0.1-0.7,0.1-1.1,0.1c-0.2,0-0.3,0-0.4,0s-0.3,0-0.3,0v-5.5c0.1,0,0.3,0,0.4,0c0.1,0,0.3,0,0.4,0 c0.4,0,0.7,0,1.1,0.1c0.3,0.1,0.6,0.3,0.8,0.5c0.2,0.2,0.4,0.5,0.5,0.9c0.1,0.4,0.2,0.8,0.2,1.3C4.4,40.4,4.4,40.8,4.2,41.3 L4.2,41.3z"></path> <path d="M13.4,42.6v-2.4h2.3c0-0.1,0-0.1,0-0.2c0-0.1,0-0.2,0-0.2s0-0.1,0-0.2c0-0.1,0-0.1,0-0.2h-2.3v-2h2.9c0-0.1,0-0.1,0-0.2 c0-0.1,0-0.2,0-0.2c0-0.1,0-0.3,0-0.4h-3.9v7.1h4c0-0.1,0-0.1,0-0.2c0-0.1,0-0.2,0-0.2c0-0.1,0-0.3,0-0.4L13.4,42.6z"></path> <path d="M26.8,40.1c-0.2-0.2-0.3-0.3-0.5-0.4c-0.2-0.1-0.5-0.2-0.7-0.3l-0.6-0.2c-0.1-0.1-0.3-0.1-0.4-0.2 c-0.1-0.1-0.2-0.1-0.3-0.2c-0.1-0.1-0.2-0.2-0.2-0.3c-0.1-0.1-0.1-0.2-0.1-0.4c0-0.3,0.1-0.6,0.3-0.8c0.3-0.2,0.6-0.3,1-0.3 c0.3,0,0.5,0,0.8,0.1c0.2,0,0.4,0.1,0.6,0.2c0.1-0.3,0.2-0.5,0.2-0.8c-0.5-0.2-1.1-0.3-1.7-0.3c-0.6,0-1.2,0.1-1.7,0.5 c-0.4,0.4-0.6,0.9-0.6,1.4c0,0.2,0,0.4,0.1,0.7c0.1,0.2,0.2,0.3,0.3,0.5c0.1,0.1,0.3,0.3,0.4,0.4c0.2,0.1,0.3,0.2,0.5,0.3l0.6,0.2 c0.2,0.1,0.4,0.2,0.6,0.3c0.2,0.1,0.3,0.2,0.4,0.3c0.1,0.1,0.2,0.2,0.3,0.3c0.1,0.2,0.1,0.3,0.1,0.5c0,0.3-0.1,0.7-0.4,0.9 c-0.4,0.2-0.8,0.4-1.2,0.3c-0.3,0-0.6,0-0.9-0.1c-0.2-0.1-0.5-0.1-0.7-0.2c-0.1,0.1-0.1,0.3-0.1,0.4c0,0.1-0.1,0.3-0.1,0.4 c0.1,0,0.3,0.1,0.4,0.1c0.1,0,0.3,0.1,0.4,0.1c0.2,0,0.3,0,0.5,0.1c0.2,0,0.4,0,0.6,0c0.7,0,1.4-0.2,2-0.6c0.5-0.4,0.7-1,0.7-1.6 c0-0.3,0-0.5-0.1-0.7C27.1,40.5,27,40.3,26.8,40.1z"></path> <path d="M47.8,36.3c-0.1,0-0.2,0-0.3,0s-0.2,0-0.3,0c-0.1,0-0.2,0-0.2,0l-1.9,4.5l-1.8-4.5c-0.1,0-0.2,0-0.3,0c-0.1,0-0.2,0-0.3,0 s-0.2,0-0.3,0s-0.2,0-0.3,0l-0.3,7.1c0.1,0,0.2,0,0.2,0c0.1,0,0.2,0,0.2,0s0.1,0,0.2,0s0.2,0,0.2,0l0.2-5.6l1.7,4.1 c0.1,0,0.3,0,0.4,0c0.1,0,0.3,0,0.4,0l1.7-4.1l0.2,5.6c0.1,0,0.2,0,0.2,0c0.1,0,0.2,0,0.3,0s0.2,0,0.3,0s0.2,0,0.2,0L48,36.4 C47.9,36.4,47.9,36.3,47.8,36.3z"></path> <path d="M57,35.8c0.1,0,0.2,0,0.3,0s0.2,0,0.3,0l1.4-1.1c-0.1,0-0.2,0-0.3,0s-0.2,0-0.4,0s-0.2,0-0.4,0s-0.2,0-0.3,0l-1.1,1.1 c0.1,0,0.2,0,0.3,0S56.9,35.8,57,35.8z"></path> <path d="M56.5,42.6v-2.4h2.3c0-0.1,0-0.1,0-0.2c0-0.1,0-0.2,0-0.2s0-0.1,0-0.2c0-0.1,0-0.1,0-0.2h-2.3v-2h2.9c0-0.1,0-0.1,0-0.2 c0-0.1,0-0.2,0-0.2c0-0.1,0-0.3,0-0.4h-3.9v7.1h4c0-0.1,0-0.1,0-0.2c0-0.1,0-0.2,0-0.2c0-0.1,0-0.3,0-0.4L56.5,42.6z"></path> <path d="M68.7,36.3c-0.1,0-0.2,0-0.3,0s-0.2,0-0.3,0s-0.2,0-0.3,0l-2.3,7.1c0.1,0,0.2,0,0.2,0c0.1,0,0.2,0,0.3,0s0.2,0,0.3,0 s0.2,0,0.3,0l0.5-1.7h2.7l0.5,1.7c0.1,0,0.2,0,0.3,0s0.2,0,0.3,0s0.2,0,0.3,0c0.1,0,0.2,0,0.3,0L69,36.4 C68.9,36.4,68.8,36.3,68.7,36.3z M67.3,41l1.1-3.6l1.1,3.6H67.3z"></path> <path d="M82.4,36.3c-0.1,0-0.2,0-0.3,0s-0.2,0-0.2,0v5.4l-3.1-5.4c-0.1,0-0.1,0-0.2,0s-0.2,0-0.2,0s-0.2,0-0.2,0s-0.2,0-0.2,0v7.1 c0.1,0,0.1,0,0.2,0c0.1,0,0.2,0,0.3,0s0.2,0,0.2,0c0.1,0,0.2,0,0.2,0v-5.3l3.1,5.3c0.1,0,0.2,0,0.2,0c0.1,0,0.2,0,0.2,0 s0.2,0,0.2,0c0.1,0,0.2,0,0.2,0v-7.1c-0.1,0-0.1,0-0.2,0S82.5,36.3,82.4,36.3z"></path> <path d="M91.8,36.3c-0.3,0-0.6,0-0.9,0s-0.6,0-0.8,0.1v7.1c0.2,0,0.5,0.1,0.8,0.1s0.6,0,0.9,0c1,0.1,2-0.2,2.8-0.9 c0.7-0.8,1-1.8,0.9-2.8c0.2-1.8-1.1-3.5-2.9-3.7C92.4,36.2,92.1,36.2,91.8,36.3L91.8,36.3z M94.3,41.3c-0.2,0.6-0.7,1.1-1.4,1.3 c-0.3,0.1-0.7,0.1-1.1,0.1c-0.2,0-0.3,0-0.4,0s-0.3,0-0.3,0v-5.5c0.1,0,0.3,0,0.4,0c0.1,0,0.3,0,0.4,0c0.4,0,0.7,0,1.1,0.1 c0.3,0.1,0.6,0.3,0.8,0.5c0.2,0.2,0.4,0.5,0.5,0.9c0.1,0.4,0.2,0.8,0.2,1.3C94.5,40.4,94.4,40.8,94.3,41.3z"></path> <path d="M105.4,40.4c0.2-0.1,0.3-0.2,0.5-0.3c0.2-0.1,0.3-0.3,0.5-0.4c0.1-0.2,0.2-0.4,0.3-0.6c0.1-0.2,0.1-0.5,0.1-0.7 c0-0.4-0.1-0.7-0.2-1.1c-0.2-0.3-0.4-0.5-0.6-0.7c-0.3-0.2-0.6-0.3-0.9-0.3c-0.3-0.1-0.7-0.1-1-0.1c-0.2,0-0.3,0-0.4,0 s-0.2,0-0.4,0s-0.2,0-0.4,0s-0.3,0-0.4,0v7.2c0.1,0,0.2,0,0.3,0c0.1,0,0.2,0,0.3,0s0.2,0,0.3,0s0.2,0,0.2,0v-6.4 c0.1,0,0.2,0,0.3,0s0.2,0,0.3,0c0.4,0,0.8,0.1,1.1,0.3c0.3,0.3,0.5,0.7,0.4,1.1c0,0.2,0,0.5-0.2,0.7c-0.1,0.2-0.3,0.3-0.4,0.5 c-0.2,0.1-0.4,0.2-0.6,0.3c-0.2,0.1-0.4,0.1-0.6,0.2l-0.1,0v0l2.3,3.3c0.2,0,0.4,0,0.5,0c0.2,0,0.4,0,0.6,0l-2.1-3L105.4,40.4z"></path> <path d="M114.9,42.6v-2.4h2.3c0-0.1,0-0.1,0-0.2c0-0.1,0-0.2,0-0.2s0-0.1,0-0.2c0-0.1,0-0.1,0-0.2h-2.3v-2h2.9c0-0.1,0-0.1,0-0.2 c0-0.1,0-0.2,0-0.2c0-0.1,0-0.3,0-0.4h-3.9v7.1h4c0-0.1,0-0.1,0-0.2c0-0.1,0-0.2,0-0.2c0-0.1,0-0.3,0-0.4L114.9,42.6z"></path> <path d="M128.3,40.1c-0.2-0.2-0.3-0.3-0.5-0.4c-0.2-0.1-0.5-0.2-0.7-0.3l-0.6-0.2c-0.1-0.1-0.3-0.1-0.4-0.2 c-0.1-0.1-0.2-0.1-0.3-0.2c-0.1-0.1-0.2-0.2-0.2-0.3c-0.1-0.1-0.1-0.2-0.1-0.4c0-0.3,0.1-0.6,0.3-0.8c0.3-0.2,0.6-0.3,1-0.3 c0.3,0,0.5,0,0.8,0.1c0.2,0,0.4,0.1,0.6,0.2c0.1-0.3,0.2-0.5,0.2-0.8c-0.5-0.2-1.1-0.3-1.7-0.3c-0.6,0-1.2,0.1-1.7,0.5 c-0.4,0.3-0.6,0.9-0.6,1.4c0,0.2,0,0.4,0.1,0.7c0.1,0.2,0.2,0.3,0.3,0.5c0.1,0.1,0.3,0.3,0.4,0.4c0.2,0.1,0.3,0.2,0.5,0.3l0.6,0.2 c0.2,0.1,0.4,0.2,0.6,0.3c0.2,0.1,0.3,0.2,0.4,0.3c0.1,0.1,0.2,0.2,0.3,0.3c0.1,0.2,0.1,0.3,0.1,0.5c0,0.3-0.1,0.7-0.4,0.9 c-0.4,0.2-0.8,0.4-1.2,0.3c-0.3,0-0.6,0-0.9-0.1c-0.2-0.1-0.5-0.1-0.7-0.2c-0.1,0.1-0.1,0.3-0.1,0.4c0,0.1-0.1,0.3-0.1,0.4 c0.1,0,0.3,0.1,0.4,0.1c0.1,0,0.3,0.1,0.4,0.1c0.2,0,0.3,0,0.5,0.1c0.2,0,0.3,0,0.6,0c0.7,0,1.4-0.2,2-0.6c0.5-0.4,0.7-1,0.7-1.6 c0-0.3,0-0.5-0.1-0.7C128.6,40.5,128.5,40.3,128.3,40.1z"></path> </g> <g transform="translate(22.612 32.949)"> <path class="st0" d="M17.2,0h16.5c0.2,0,0.4,0,0.6,0c0,0,0,0,0,0c0,0,0,0,0,0c-0.1,0-0.2,0-0.2,0c-0.2,0-0.3,0.1-0.5,0.1 c-0.9,0.3-1.7,1-2,1.9c-0.1,0.3-0.1,0.5-0.1,0.8V3c0,0.5,0.1,0.9,0.4,1.4c0.1,0.1,0.1,0.2,0.2,0.3c0.2,0.4,0.5,0.7,0.7,1.1 c0,0,0.1,0.1,0.1,0.1s0,0.1,0,0.1s-0.1,0-0.1,0c-0.1,0-0.2,0-0.3,0H3c-0.1,0-0.3,0-0.4,0c0,0-0.1,0-0.1-0.1c0,0,0,0,0-0.1 c0-0.1,0-0.2,0-0.3c0-0.8,0-1.6,0-2.4c0-0.1,0-0.2,0-0.3c0-1.3-0.9-2.4-2.1-2.8c-0.1,0-0.2-0.1-0.3-0.1C0.1,0.1,0.1,0.1,0,0v0 c0,0,0,0,0.1,0c0.1,0,0.2,0,0.3,0L17.2,0z"></path> <path class="st0" d="M66.7,39.3H56c-0.1,0-0.3,0-0.4,0c0,0,0,0,0,0c0,0,0,0,0,0c0.2,0,0.3-0.1,0.5-0.1c0.9-0.3,1.5-1,1.8-1.9 C58,36.8,58,36.4,58,36c0-0.4-0.2-0.8-0.4-1.1c0-0.1-0.1-0.2-0.2-0.3c-0.3-0.4-0.5-0.8-0.8-1.2c0-0.1-0.1-0.1-0.1-0.2 c0,0,0-0.1,0-0.1c0,0,0,0,0.1,0c0.1,0,0.2,0,0.3,0h19.3c0.1,0,0.2,0,0.3,0c0,0,0.1,0,0.1,0.1c0,0,0,0,0,0c0,0-0.1,0.1-0.1,0.1 c-0.2,0.3-0.4,0.6-0.6,0.8l-0.2,0.2c-0.2,0.3-0.4,0.6-0.4,1c-0.1,0.4-0.1,0.7-0.1,1.1c0,0.4,0.2,0.8,0.4,1.1 c0.3,0.6,0.9,1.1,1.6,1.3c0.2,0.1,0.3,0.1,0.5,0.1c0,0,0,0,0,0c0,0,0,0,0,0c-0.1,0-0.3,0-0.4,0L66.7,39.3z"></path> </g> <g transform="translate(19.168 32.954)"> <path class="st1" d="M38.7,0.3c0.1,0,0.1,0,0.2,0c0.5,0.2,0.9,0.5,1.2,1c0.1,0.1,0.1,0.2,0.2,0.3L42,4.2l5.1,8.2 c0.2,0.4,0.5,0.8,0.7,1.2c0,0.1,0.1,0.2,0.1,0.2c0,0,0,0.1,0,0.1c-0.1,0.1-0.1,0.2-0.2,0.3c-0.8,1.3-1.6,2.6-2.4,3.8 c-0.1,0.1-0.1,0.2-0.2,0.3c-0.2,0.3-0.3,0.6-0.3,0.9c-0.1,0.3-0.1,0.6,0,0.9c0.1,0.5,0.2,0.9,0.5,1.3c0.5,0.8,1,1.6,1.6,2.4 c0.3,0.5,0.6,1,0.9,1.4c0,0.1,0.1,0.1,0.1,0.2c0,0,0,0.1,0,0.1c-0.1,0.1-0.1,0.2-0.2,0.3c-1.3,2-2.7,4.1-4,6.1 c-1.1,1.7-2.2,3.4-3.3,5c-0.1,0.1-0.1,0.2-0.2,0.3c0,0,0,0-0.1,0c0,0,0,0,0,0c0-0.1,0-0.2,0.1-0.3c0-0.2,0.1-0.4,0.1-0.6 c0-0.1,0-0.2,0-0.2c0-0.4-0.1-0.9-0.3-1.2c-0.4-0.7-1-1.3-1.9-1.5c-0.3-0.1-0.5-0.1-0.8-0.1c-0.4,0-0.8,0-1.3,0 c-0.1,0-0.1,0-0.2,0c0,0-0.1-0.1,0-0.1c0,0,0-0.1,0.1-0.1c0.3-0.4,0.5-0.8,0.8-1.2L44.5,20c0.1-0.1,0.1-0.2,0.2-0.3c0,0,0,0,0-0.1 c0-0.1-0.1-0.2-0.1-0.2c-0.4-0.6-0.8-1.3-1.2-1.9L37.1,7.5l-0.8-1.2c0,0-0.1-0.1-0.1-0.1c0,0,0-0.1,0-0.1c0,0,0,0,0,0 c0.1,0,0.1,0,0.2,0c0.3,0,0.6,0,0.9,0h0.3c0.5,0,1.1-0.2,1.5-0.5c0.6-0.4,1.1-1,1.2-1.8c0.1-0.3,0.1-0.7,0.1-1 c-0.1-0.6-0.3-1.2-0.7-1.7C39.5,0.8,39.2,0.5,38.7,0.3C38.8,0.3,38.8,0.3,38.7,0.3L38.7,0.3z"></path> <path class="st1" d="M95.1,1C95.1,1,95.1,1,95.1,1c0.1,0,0.1,0.1,0.1,0.1c0.3,0.4,0.5,0.8,0.6,1.2C95.9,2.5,96,2.8,96,3 c0,0.1,0,0.2,0,0.3v15.8c0,0.3,0,0.7,0,1c0,0,0-0.1,0-0.1c0-0.3-0.1-0.6-0.2-0.9c-0.3-0.8-1-1.5-1.9-1.7c-0.1,0-0.3-0.1-0.4-0.1 c-0.3,0-0.6,0-0.9,0c-0.6,0.1-1.1,0.3-1.5,0.7c-0.2,0.2-0.4,0.4-0.5,0.6c-0.1,0.2-0.2,0.3-0.3,0.5c0,0-0.1,0.1-0.1,0.1 c0,0,0,0-0.1,0c0,0,0,0,0-0.1c0,0,0-0.1,0-0.1c0-0.1,0-0.2,0-0.2V6.5c0-0.1,0-0.2,0-0.4C89.9,6.1,90,6,90,6c0,0,0.1,0,0.1,0h2.6 c0.1,0,0.2,0,0.3,0c0.6,0,1.2-0.2,1.7-0.6c0.5-0.4,0.8-0.9,1-1.5c0.1-0.2,0.1-0.4,0.1-0.6c0-0.1,0-0.2,0-0.3 c0-0.5-0.1-0.9-0.4-1.4C95.4,1.4,95.3,1.2,95.1,1C95.1,1,95.1,1,95.1,1L95.1,1z"></path> <path class="st1" d="M6,4.3c0,0.5,0,0.9,0,1.4c0,0.1,0,0.2,0,0.2C6,6,6,6,5.9,6c0,0,0,0-0.1,0C5.8,6,5.8,6,5.7,6C4.8,6,4,6,3.1,6 C2.9,6,2.6,6,2.4,6C2.1,5.9,1.8,5.8,1.5,5.6c-0.7-0.4-1.2-1-1.4-1.8C0,3.6,0,3.4,0,3.2C0,3.1,0,3,0,2.9c0-0.6,0.2-1.2,0.6-1.7 C1,0.7,1.5,0.3,2.1,0.1C2.2,0.1,2.4,0.1,2.5,0c0.1,0,0.1,0,0.2,0C2.9,0,3,0,3.1,0c0.6,0,1.2,0.2,1.7,0.6C5.3,0.9,5.6,1.4,5.8,2 C5.9,2.3,6,2.5,6,2.8C6,3,6,3.1,6,3.2C6,3.6,6,3.9,6,4.3z"></path> <path class="st1" d="M94.9,0.7c0,0-0.1,0-0.1,0c-0.1,0-0.1-0.1-0.2-0.2l0,0c0,0,0.1,0,0.1,0c0,0,0.1,0,0.1,0.1 C94.9,0.7,94.9,0.7,94.9,0.7C94.9,0.8,94.9,0.7,94.9,0.7z"></path> <path class="st1" d="M38.7,0.3C38.7,0.2,38.7,0.2,38.7,0.3C38.7,0.2,38.7,0.2,38.7,0.3C38.7,0.2,38.7,0.2,38.7,0.3L38.7,0.3z"></path> <path class="st1" d="M94.3,0.4C94.3,0.4,94.4,0.5,94.3,0.4c0.1,0.1,0.1,0.1,0.1,0.1h0C94.4,0.4,94.4,0.4,94.3,0.4L94.3,0.4z"></path> <path class="st1" d="M94.6,0.5C94.6,0.5,94.6,0.5,94.6,0.5c-0.1,0-0.1,0-0.2,0l0,0C94.5,0.5,94.5,0.5,94.6,0.5 C94.6,0.5,94.6,0.5,94.6,0.5L94.6,0.5z"></path> <path class="st1" d="M94.3,0.4L94.3,0.4C94.3,0.4,94.3,0.4,94.3,0.4L94.3,0.4z"></path> <path class="st1" d="M94.6,0.5c0,0,0,0.1,0,0.1l0,0C94.6,0.6,94.6,0.5,94.6,0.5z"></path> <path class="st1" d="M95,0.8C94.9,0.8,94.9,0.8,95,0.8C94.9,0.7,94.9,0.8,95,0.8C95,0.8,95,0.8,95,0.8L95,0.8z"></path> <path class="st1" d="M95.1,0.9C95,0.9,95,0.9,95.1,0.9L95.1,0.9C95,0.9,95.1,0.9,95.1,0.9L95.1,0.9z"></path> <path class="st1" d="M95,0.9C95.1,0.9,95.1,0.9,95,0.9L95,0.9C95.1,1,95.1,1,95,0.9L95,0.9z"></path> </g> <g transform="translate(33.82 52.208)"> <path class="st2" d="M11.1,20H0.4c-0.1,0-0.3,0-0.4,0C0,20,0,20,0,20s0,0,0,0c0.2,0,0.3-0.1,0.4-0.1c0.9-0.3,1.6-1,1.8-1.9 c0.1-0.3,0.1-0.5,0.1-0.8c0-0.1,0-0.2,0-0.3c0-0.5-0.1-0.9-0.4-1.3c-0.1-0.1-0.1-0.2-0.2-0.3c-0.2-0.3-0.4-0.6-0.7-1 c0-0.1-0.1-0.1-0.1-0.2c0,0,0,0,0-0.1c0,0,0,0,0.1,0c0.1,0,0.2,0,0.3,0h19.3c0.1,0,0.2,0,0.4,0c0,0,0,0,0,0.1c0,0,0,0,0,0.1 l-0.1,0.2c-0.2,0.3-0.4,0.7-0.6,1c0,0.1-0.1,0.1-0.1,0.2c-0.2,0.3-0.3,0.6-0.4,1c0,0.2-0.1,0.5,0,0.7c0.1,1.2,0.9,2.3,2.1,2.6 c0.1,0,0.2,0.1,0.3,0.1c0,0,0,0,0,0c0,0,0,0,0,0c-0.1,0-0.3,0-0.4,0L11.1,20L11.1,20z"></path> <path class="st2" d="M80.6,2.8c-0.1,0.1-0.2,0.3-0.3,0.4l-2.3,3.3c-2.8,4-5.5,8-8.3,12.1c-0.1,0.1-0.1,0.2-0.2,0.2 c-0.2,0.2-0.4,0.4-0.6,0.6c0,0-0.1,0-0.1,0h0c0,0,0,0,0-0.1c0.1-0.1,0.1-0.1,0.2-0.2c0.4-0.3,0.6-0.8,0.8-1.2 c0.1-0.2,0.1-0.3,0.1-0.5c0-0.2,0-0.3,0-0.5c0-1.4-0.9-2.6-2.2-2.9C67.6,14,67.4,14,67.2,14c-0.4,0-0.8,0-1.3,0 c-0.1,0-0.2,0-0.2,0c0,0-0.1,0,0-0.1c0,0,0-0.1,0.1-0.1c0.2-0.3,0.4-0.6,0.7-1C69.1,8.9,71.8,5,74.5,1c0.2-0.3,0.4-0.6,0.6-0.9 c0,0,0.1-0.1,0.1-0.1c0,0,0,0,0,0c0,0,0,0,0,0c0,0,0,0.1,0,0.1c0,0.2,0,0.4,0,0.6c0,0.1,0,0.2,0,0.3c0,0.4,0.1,0.8,0.3,1.1 c0.4,0.8,1,1.3,1.8,1.6c0.2,0.1,0.3,0.1,0.5,0.1c0.2,0,0.3,0,0.5,0c0.1,0,0.2,0,0.2,0c0,0,0.1,0,0.1,0c0.3,0,0.6-0.1,0.8-0.2 c0.3-0.1,0.5-0.3,0.7-0.5c0.1-0.1,0.1-0.1,0.2-0.2C80.5,2.8,80.6,2.8,80.6,2.8L80.6,2.8z"></path> <path class="st2" d="M68.7,19.5c0,0,0.1-0.1,0.2-0.1c0,0,0,0,0.1,0h0c0,0,0,0.1-0.1,0.1C68.8,19.5,68.7,19.6,68.7,19.5L68.7,19.5z "></path> <path class="st2" d="M68.7,19.5C68.7,19.5,68.7,19.6,68.7,19.5c0,0.1-0.1,0.1-0.1,0.1c0,0,0,0,0,0.1l0,0c0,0,0-0.1,0-0.1 C68.6,19.6,68.7,19.6,68.7,19.5L68.7,19.5z"></path> <path class="st2" d="M68.6,19.7C68.6,19.7,68.5,19.7,68.6,19.7C68.5,19.7,68.5,19.7,68.6,19.7C68.5,19.7,68.5,19.7,68.6,19.7 C68.5,19.7,68.5,19.7,68.6,19.7C68.5,19.7,68.6,19.7,68.6,19.7L68.6,19.7z"></path> <path class="st2" d="M68.2,19.8L68.2,19.8C68.2,19.8,68.2,19.8,68.2,19.8C68.2,19.8,68.2,19.8,68.2,19.8 C68.2,19.8,68.2,19.8,68.2,19.8L68.2,19.8z"></path> <path class="st2" d="M68.2,19.8C68.2,19.8,68.2,19.8,68.2,19.8C68.2,19.8,68.2,19.8,68.2,19.8C68.2,19.9,68.2,19.8,68.2,19.8 L68.2,19.8z"></path> <path class="st2" d="M80.6,2.8C80.6,2.8,80.6,2.8,80.6,2.8C80.6,2.8,80.6,2.8,80.6,2.8L80.6,2.8z"></path> </g> <path class="st3" d="M94.5,32.9h16.8h0.4h0c0,0,0,0,0,0c-0.1,0-0.2,0.1-0.4,0.1c-0.5,0.1-1,0.4-1.4,0.8c-0.3,0.4-0.6,0.8-0.7,1.2 c-0.1,0.2-0.1,0.4-0.1,0.6c0,0.1,0,0.3,0,0.4v2.4c0,0.1,0,0.2,0,0.3c0,0,0,0,0,0.1c0,0,0,0.1-0.1,0.1c0,0-0.1,0-0.1,0 c-0.1,0-0.2,0-0.3,0H79.4H79c0,0-0.1,0-0.1-0.1c0,0,0,0,0,0c0,0,0,0,0-0.1c0,0,0.1-0.1,0.1-0.1c0.2-0.3,0.4-0.7,0.6-1 c0.1-0.1,0.1-0.2,0.2-0.3c0.2-0.3,0.3-0.5,0.3-0.8c0.1-0.2,0.1-0.5,0.1-0.8c0-1.2-0.8-2.2-1.9-2.6c-0.2-0.1-0.4-0.1-0.5-0.1 c0,0,0,0,0,0c-0.2,0-0.4-0.1-0.6-0.1c0,0,0,0,0,0s0,0,0,0c0,0,0.1,0,0.1,0c0.2,0,0.4,0,0.6,0L94.5,32.9z"></path> <path class="st3" d="M31.4,71.5C31.4,71.5,31.3,71.5,31.4,71.5c-0.1,0-0.1-0.1-0.2-0.1c-0.2-0.2-0.3-0.3-0.4-0.5 c-0.3-0.4-0.6-0.8-0.8-1.2c-2.3-3.3-4.5-6.6-6.8-9.9c-1-1.4-2-2.9-3-4.3c0-0.1-0.1-0.1-0.1-0.2c0,0,0-0.1,0-0.1l0,0c0,0,0,0,0.1,0 c0.1,0.1,0.2,0.1,0.2,0.2c0.3,0.2,0.6,0.4,1,0.6c0.2,0.1,0.3,0.1,0.5,0.1c0,0,0.1,0,0.1,0c0.2,0,0.4,0,0.6,0c0.4,0,0.8-0.1,1.2-0.3 c0.4-0.2,0.7-0.4,0.9-0.7c0.5-0.5,0.7-1.2,0.7-1.9c0-0.2,0-0.5,0-0.7c0,0,0,0,0-0.1c0,0,0,0,0-0.1c0,0,0,0,0.1,0c0,0,0,0,0,0 c0.1,0.1,0.1,0.2,0.2,0.3c1.8,2.6,3.6,5.2,5.4,7.8c1.3,1.9,2.6,3.7,3.8,5.6c0.1,0.1,0.1,0.2,0.2,0.3c0,0,0,0,0,0.1c0,0-0.1,0-0.1,0 c-0.4,0-0.7,0-1.1,0h-0.2c-0.2,0-0.3,0-0.5,0.1c-0.2,0-0.4,0.1-0.6,0.2c-0.8,0.4-1.5,1.1-1.7,2c-0.1,0.2-0.1,0.4-0.1,0.6 c0,0.1,0,0.2,0,0.2c0,0.4,0.1,0.9,0.3,1.3c0.1,0.3,0.3,0.5,0.5,0.7C31.3,71.3,31.3,71.4,31.4,71.5C31.4,71.4,31.4,71.5,31.4,71.5 L31.4,71.5z"></path> <path class="st3" d="M103.9,69.1v0.1c0,0.9-0.4,1.7-1.1,2.2c-0.3,0.3-0.8,0.5-1.2,0.6c-0.2,0.1-0.4,0.1-0.6,0.1c-0.1,0-0.2,0-0.3,0 c0,0-0.1,0-0.1,0c-0.7-0.1-1.3-0.4-1.8-0.9c-0.4-0.4-0.7-0.9-0.8-1.5c-0.1-0.3-0.1-0.7,0-1c0.1-0.4,0.2-0.8,0.4-1.2 c0-0.1,0.1-0.1,0.1-0.2l0.8-1.1c0,0,0,0,0-0.1c0,0,0.1-0.1,0.1-0.1c0,0,0.1,0,0.1,0c0.4,0,0.9,0,1.4,0c0.1,0,0.1,0,0.2,0 c0.5,0,0.9,0.2,1.3,0.4c0.7,0.4,1.2,1.1,1.4,1.8C103.9,68.6,103.9,68.9,103.9,69.1z"></path> <path d="M31.7,71.7C31.6,71.7,31.6,71.7,31.7,71.7c-0.1,0-0.2-0.1-0.3-0.2c0,0,0,0,0,0l0,0c0,0,0,0,0,0 C31.5,71.5,31.6,71.6,31.7,71.7C31.6,71.7,31.6,71.7,31.7,71.7L31.7,71.7z"></path> <path d="M31.6,71.7c0,0,0.1,0,0.1,0c0,0,0.1,0.1,0,0.1c0,0,0,0,0,0l0,0C31.8,71.8,31.7,71.8,31.6,71.7 C31.7,71.7,31.6,71.7,31.6,71.7L31.6,71.7z"></path> <path d="M19.8,54.9C19.8,54.9,19.8,54.9,19.8,54.9c0,0.1,0,0.1,0,0.2c0,0,0,0,0,0l0,0C19.9,55,19.9,55,19.8,54.9 C19.9,54.9,19.9,54.9,19.8,54.9L19.8,54.9z"></path> <path d="M31.8,71.9C31.8,71.8,31.9,71.8,31.8,71.9c0.1,0,0.1,0,0.2,0l0,0C31.9,71.9,31.9,71.9,31.8,71.9L31.8,71.9z"></path> <path d="M32,71.9c0.1,0,0.1,0,0.1,0.1l0,0C32.1,72,32,71.9,32,71.9C32,71.9,32,71.9,32,71.9L32,71.9z"></path> <path d="M32.1,72C32.1,72,32.1,72,32.1,72C32.1,72,32.1,72,32.1,72C32.2,72,32.1,72,32.1,72C32.1,72,32.1,72,32.1,72L32.1,72z"></path> <path d="M32.4,72.1L32.4,72.1L32.4,72.1L32.4,72.1z"></path> <path d="M19.8,54.9C19.8,54.9,19.8,54.9,19.8,54.9C19.8,54.9,19.8,54.9,19.8,54.9C19.9,54.9,19.8,54.9,19.8,54.9L19.8,54.9z"></path> <path d="M19.9,55.1C19.9,55.1,19.9,55.1,19.9,55.1C19.9,55.1,19.9,55.1,19.9,55.1l0.1,0C19.9,55.1,19.9,55.1,19.9,55.1L19.9,55.1z"></path> <g transform="translate(67.158 34.115)"> <path class="st4" d="M7.7,0.5C7.7,0.5,7.6,0.5,7.7,0.5C7.5,0.8,7.4,1.1,7.3,1.4c0,0,0,0.1,0,0.1c0,0.1,0,0.3,0,0.4 c0,0.5,0.1,1,0.4,1.4c0.4,0.7,1,1.2,1.8,1.4c0.2,0.1,0.4,0.1,0.6,0.1c0.1,0,0.2,0,0.4,0c0.4,0,0.7,0,1.1,0c0,0,0.1,0,0.1,0 c0,0,0,0,0,0.1c0,0.1-0.1,0.1-0.1,0.2c-0.5,0.8-1,1.6-1.5,2.4c-1.3,2.1-2.6,4.2-3.9,6.3l-2.8,4.5c0,0.1-0.1,0.1-0.1,0.2 c0,0,0,0.1,0,0.2c0,0.1,0.1,0.1,0.1,0.2l2.7,4.1c1.9,3,3.8,5.9,5.7,8.9c0.1,0.1,0.1,0.2,0.2,0.3c0,0,0,0,0,0.1c0,0,0,0-0.1,0h-0.3 c-0.4,0-0.7,0-1.1,0c-0.3,0-0.7,0.1-1,0.2c-0.3,0.1-0.6,0.3-0.9,0.5c-0.5,0.4-0.8,0.9-1,1.5c-0.1,0.3-0.1,0.6-0.1,0.9 c0,0.1,0,0.3,0,0.4c0,0.2,0.1,0.3,0.1,0.4c0,0.1,0,0.1,0,0.2c0,0,0,0,0,0c0,0,0,0,0,0c-0.1-0.1-0.2-0.2-0.2-0.3 C6.2,33.9,5,32,3.7,30c-1.2-1.8-2.4-3.6-3.5-5.5c-0.1-0.1-0.1-0.2-0.2-0.3c0,0,0,0,0-0.1c0-0.1,0-0.1,0.1-0.1l0.8-1.2 C1.4,22,2,21.1,2.6,20.3c0-0.1,0.1-0.1,0.1-0.2c0.2-0.3,0.3-0.7,0.4-1c0,0,0-0.1,0-0.1c0-0.1,0-0.3,0-0.4c0-0.5-0.1-1-0.4-1.4 c0-0.1-0.1-0.2-0.2-0.3c-0.8-1.3-1.6-2.5-2.4-3.8C0.2,13,0.1,12.8,0,12.7c0,0,0-0.1,0-0.1c0-0.1,0.1-0.2,0.1-0.2 C2.5,8.6,4.9,4.8,7.3,1c0.1-0.1,0.2-0.3,0.3-0.4C7.6,0.5,7.6,0.5,7.7,0.5L7.7,0.5z"></path> <path class="st4" d="M7.7,0.5c0.1,0,0.1-0.1,0.1-0.2l0,0C7.7,0.3,7.7,0.4,7.7,0.5L7.7,0.5z"></path> <path class="st4" d="M8,0C8,0,8,0,8,0C7.9,0,7.9,0,8,0L8,0z"></path> <path class="st4" d="M7.8,0.1c0.1,0,0.1,0,0.1-0.1v0C7.9,0,7.9,0,7.8,0.1C7.9,0,7.9,0,7.8,0.1C7.8,0,7.8,0.1,7.8,0.1L7.8,0.1z"></path> <path class="st4" d="M7.8,0.1C7.8,0.1,7.8,0.1,7.8,0.1L7.8,0.1C7.8,0.1,7.8,0.1,7.8,0.1L7.8,0.1z"></path> <path class="st4" d="M7.7,0.3L7.7,0.3L7.7,0.3L7.7,0.3L7.7,0.3z"></path> </g> <path d="M64,52.7c0-0.5,0.1-1.1,0.4-1.5c0-0.1,0.1-0.2,0.2-0.3c0.8-1.3,1.6-2.6,2.4-3.9c0-0.1,0.1-0.2,0.2-0.2c0,0,0,0,0.1,0 c0,0,0.1,0.1,0.1,0.1l0.5,0.9c0.7,1,1.3,2.1,2,3.1c0,0.1,0.1,0.1,0.1,0.2c0.2,0.3,0.3,0.6,0.3,0.9c0.1,0.3,0.1,0.6,0.1,0.9 c0,0.3-0.1,0.6-0.2,0.9c-0.1,0.2-0.2,0.3-0.2,0.5l-0.4,0.6C68.7,56,68,57,67.3,58.1c0,0.1-0.1,0.1-0.1,0.2c0,0-0.1,0-0.1,0 C67,58.3,67,58.2,67,58.1c-0.5-0.7-0.9-1.4-1.4-2.1c-0.3-0.5-0.7-1-1-1.5c0-0.1-0.1-0.1-0.1-0.2c-0.2-0.3-0.3-0.6-0.4-1 C64,53.1,64,52.9,64,52.7z"></path> <path d="M109.1,37.3c0-0.4,0-0.9,0-1.3c0-0.2,0-0.5,0.1-0.7c0.2-1.1,1-1.9,2.1-2.2c0.1-0.1,0.3-0.1,0.4-0.1c0.1,0,0.1,0,0.2,0 c0.1,0,0.3,0,0.4,0c1.2,0.1,2.3,0.9,2.7,2.1c0,0.1,0.1,0.3,0.1,0.4c0,0.1,0,0.3,0,0.4c0,0,0,0.1,0,0.1c0,0.9-0.5,1.7-1.2,2.3 c-0.4,0.3-0.8,0.5-1.2,0.6c-0.2,0-0.4,0.1-0.7,0.1c-0.4,0-0.8,0-1.2,0h-1.5c-0.1,0-0.1,0-0.2,0c0,0-0.1,0-0.1-0.1 c0-0.1,0-0.2,0-0.2C109.1,38.2,109.1,37.8,109.1,37.3L109.1,37.3z"></path> <path class="st5" d="M33.9,66.2c0.3,0,0.5,0,0.8,0c0.1,0,0.1,0,0.2,0c0,0,0.1,0,0.1,0c0,0,0.1,0.1,0.1,0.1c0.3,0.4,0.5,0.8,0.8,1.1 c0.1,0.2,0.2,0.4,0.3,0.6c0.1,0.3,0.2,0.6,0.2,0.9c0,0.2,0,0.5,0,0.7c0,0.3-0.1,0.5-0.2,0.8c-0.4,0.8-1.1,1.4-1.9,1.7 c-0.2,0-0.3,0.1-0.5,0.1c-0.2,0-0.4,0-0.6,0c-1.2-0.2-2.3-1.1-2.6-2.3c-0.1-0.3-0.1-0.7-0.1-1c0.1-0.7,0.3-1.3,0.8-1.8 c0.4-0.4,0.8-0.7,1.3-0.8c0.2-0.1,0.4-0.1,0.6-0.1c0.2,0,0.4,0,0.7,0L33.9,66.2L33.9,66.2z"></path> <path d="M56.1,66.2c0.1,0,0.3,0,0.4,0c0.1,0,0.2,0,0.3,0c0.4,0,0.8,0.1,1.2,0.3c0.7,0.4,1.2,1,1.5,1.8c0.1,0.1,0.1,0.3,0.1,0.4 c0,0.1,0,0.2,0,0.4c0,0.1,0,0.3,0,0.4c0,0.2-0.1,0.3-0.1,0.5c0,0.2-0.1,0.4-0.2,0.5c-0.1,0.1-0.2,0.3-0.3,0.4 c-0.3,0.5-0.9,0.9-1.4,1.1c-0.2,0.1-0.4,0.1-0.6,0.2c0,0-0.1,0-0.1,0c-0.1,0-0.2,0-0.3,0c-0.6,0-1.1-0.2-1.6-0.5 c-0.6-0.4-1.1-1-1.3-1.7c-0.1-0.3-0.1-0.6-0.1-0.9c0-0.5,0.2-0.9,0.4-1.3c0,0,0.1-0.1,0.1-0.1l0.9-1.3c0,0,0.1-0.1,0.1-0.1 c0,0,0.1,0,0.1,0c0.1,0,0.1,0,0.2,0C55.6,66.2,55.8,66.2,56.1,66.2z"></path> <path d="M109.1,52.7v-0.5c0,0,0-0.1,0-0.1c0-0.1,0.1-0.1,0.1-0.2c0.1-0.2,0.2-0.3,0.4-0.5c0.3-0.4,0.6-0.7,1-0.9 c0.5-0.2,1-0.4,1.5-0.4c0.1,0,0.2,0,0.3,0c0.1,0,0.3,0,0.4,0.1c0.9,0.2,1.7,0.9,2,1.8c0.1,0.2,0.1,0.4,0.2,0.6c0,0.2,0,0.5,0,0.7 c0,0.2-0.1,0.5-0.1,0.7c-0.1,0.4-0.3,0.7-0.5,1c-0.4,0.4-0.8,0.8-1.4,0.9c-0.2,0-0.3,0.1-0.5,0.1c-0.2,0-0.3,0-0.5,0 c-0.2,0-0.3,0-0.5-0.1c-0.4-0.1-0.8-0.2-1.2-0.5c-0.6-0.4-1-1-1.2-1.7c-0.1-0.2-0.1-0.5-0.1-0.7L109.1,52.7L109.1,52.7z"></path> <path d="M25.2,52.8c0,0.1,0,0.3,0,0.4c0,0.3-0.1,0.6-0.2,0.9c-0.3,0.9-1.1,1.6-2,1.8C22.8,56,22.5,56,22.3,56c-0.1,0-0.1,0-0.2,0 c-0.6,0-1.1-0.2-1.6-0.5c-0.5-0.3-0.9-0.8-1.1-1.3c-0.1-0.2-0.1-0.4-0.2-0.6c0-0.2-0.1-0.4-0.1-0.6c0-1.3,0.8-2.4,2.1-2.9 c0.2-0.1,0.4-0.1,0.6-0.1c0.1,0,0.1,0,0.2,0c0.1,0,0.2,0,0.2,0c0.2,0,0.4,0,0.5,0.1c0.8,0.1,1.4,0.6,1.9,1.2 c0.1,0.1,0.1,0.2,0.2,0.2c0.1,0.2,0.3,0.4,0.4,0.5C25.2,52.3,25.2,52.6,25.2,52.8z"></path> <path d="M80.6,69.3c0,0.1,0,0.3,0,0.4c0,0.2-0.1,0.4-0.2,0.6c-0.3,0.9-1,1.5-1.9,1.8c-0.3,0.1-0.5,0.1-0.8,0.1h-0.1 c-0.2,0-0.4,0-0.5-0.1c-0.2,0-0.3-0.1-0.5-0.1c-0.5-0.2-1-0.6-1.4-1.1c-0.1-0.1-0.1-0.2-0.2-0.3c-0.2-0.3-0.3-0.6-0.4-0.9 c0-0.2-0.1-0.3-0.1-0.5c0-0.3,0-0.5,0.1-0.7c0.2-1,0.9-1.7,1.9-2.1c0.3-0.1,0.5-0.2,0.8-0.2c0.1,0,0.2,0,0.3,0H79c0,0,0.1,0,0.1,0 c0,0,0.1,0,0.1,0c0,0,0,0.1,0.1,0.1c0.3,0.5,0.6,0.9,0.9,1.4c0.1,0.2,0.2,0.4,0.3,0.6C80.6,68.6,80.6,68.9,80.6,69.3z"></path> <path d="M78.1,39c-0.1,0-0.2,0-0.4,0c-0.3,0-0.5,0-0.8-0.1c-0.1,0-0.2,0-0.4-0.1c-0.9-0.3-1.7-1-2-2c-0.1-0.2-0.1-0.3-0.1-0.5 c0-0.1,0-0.1,0-0.2c0-0.1,0-0.3,0-0.4c0-0.2,0-0.4,0.1-0.7c0.2-0.8,0.8-1.5,1.6-1.9c0.2-0.1,0.4-0.2,0.6-0.2c0.2,0,0.4-0.1,0.6-0.1 c0.1,0,0.1,0,0.2,0c0.4,0,0.7,0.1,1.1,0.2c0.8,0.3,1.4,1,1.6,1.9c0.1,0.2,0.1,0.4,0.1,0.6c0,0.1,0,0.1,0,0.2c0,0.5-0.1,1-0.4,1.4 c0,0,0,0.1-0.1,0.1L79,38.9c0,0,0,0.1-0.1,0.1c0,0-0.1,0.1-0.1,0.1c-0.1,0-0.1,0-0.2,0L78.1,39z"></path> <path d="M56.1,39h-0.6c0,0-0.1,0-0.1,0c0,0-0.1,0-0.1-0.1c0,0-0.1-0.1-0.1-0.1c-0.3-0.4-0.6-0.9-0.8-1.3c-0.1-0.2-0.2-0.4-0.3-0.6 c-0.1-0.2-0.1-0.4-0.1-0.5c0-0.1,0-0.1,0-0.2c0-0.1,0-0.2,0-0.4c0-0.1,0-0.1,0-0.2c0.1-0.5,0.3-1.1,0.6-1.5c0.4-0.5,0.9-0.9,1.5-1 c0.2-0.1,0.4-0.1,0.6-0.1c0.1,0,0.2,0,0.3,0c0.2,0,0.4,0,0.5,0.1c1,0.3,1.7,1.1,2,2c0.1,0.2,0.1,0.4,0.1,0.6c0,0.1,0,0.2,0,0.3 c0,0.5-0.1,0.9-0.4,1.3c-0.4,0.7-1,1.2-1.7,1.4c-0.1,0-0.3,0.1-0.4,0.1c-0.1,0-0.2,0-0.3,0c-0.1,0-0.3,0-0.4,0H56.1z"></path> <g transform="translate(19.158 36.498)"> <path class="st6" d="M0,8.1V0.5C0,0.3,0,0.2,0,0c0,0,0,0,0,0c0,0,0,0,0,0c0,0.2,0.1,0.3,0.1,0.4c0.3,0.9,1,1.6,1.9,1.8 c0.2,0.1,0.5,0.1,0.7,0.1c0.1,0,0.2,0,0.4,0c0.8,0,1.6,0,2.4,0c0.1,0,0.2,0,0.3,0c0,0,0.1,0,0.1,0.1c0,0,0,0.1,0,0.1 c0,0.1,0,0.2,0,0.2C6,7,6,11.1,6,15.2c0,0.1,0,0.2,0,0.3c0,0,0,0,0,0c0,0,0,0-0.1,0c0,0,0,0,0,0c0,0,0,0-0.1-0.1 c-0.1-0.1-0.2-0.3-0.3-0.4c0-0.1-0.1-0.1-0.1-0.2c-0.4-0.6-1-1-1.7-1.2c-0.2-0.1-0.4-0.1-0.6-0.1c-0.1,0-0.2,0-0.2,0 c-0.6,0-1.1,0.2-1.6,0.5c-0.6,0.4-1.1,1-1.2,1.7c0,0.1-0.1,0.2-0.1,0.3c0,0,0,0,0,0c0,0,0,0,0,0c0-0.1,0-0.2,0-0.2 c0-0.2,0-0.3,0-0.5L0,8.1L0,8.1z"></path> </g> </g> </svg> 