<svg xmlns="http://www.w3.org/2000/svg" fill="none" viewBox="0 0 632 614" height="614" width="632">
<path fill="black" d="M627.578 250.086C620.751 209.166 606.166 171.237 583.738 136.326C570.527 115.762 554.653 97.4411 537.106 80.4944C487.511 32.5931 428.581 5.45309 359.626 0.551754C357.029 0.36642 354.43 0.183752 351.831 -0.000248248H319.21C318.526 0.0850851 317.843 0.189088 317.158 0.253088C307.559 1.15575 297.898 1.61976 288.375 3.02376C247.223 9.09176 209.442 23.9811 174.866 47.0771C156.514 59.3357 140.159 73.9117 124.749 89.6437C100.522 114.378 81.162 142.428 66.7274 173.888C66.4954 174.393 66.294 174.913 66.054 175.485C66.4127 175.538 66.5687 175.584 66.7247 175.584C77.438 175.586 88.1514 175.605 98.8634 175.54C99.4127 175.537 100.17 174.956 100.474 174.436C104.411 167.665 108.094 160.738 112.21 154.081C123.067 136.518 135.522 120.121 150.239 105.637C171.065 85.1451 194.807 68.6264 221.01 55.6851C247.898 42.4051 276.174 33.5531 305.931 29.7451C315.955 28.4624 326.086 27.5971 336.185 27.3971C347.05 27.1824 357.887 28.5184 368.649 30.1477C408.782 36.2251 445.799 50.4624 479.735 72.7078C494.89 82.6424 509.214 93.693 521.849 106.685C547.058 132.612 566.431 162.48 580.561 195.753C591.885 222.42 599.234 250.16 602.435 278.944C603.498 288.517 604.226 298.173 604.307 307.798C604.407 319.684 603.09 331.522 601.374 343.298C595.351 384.624 581.479 423.104 559.519 458.64C548.438 476.57 535.799 493.356 520.775 508.145C499.994 528.602 476.289 545.084 450.145 558.021C422.922 571.493 394.262 580.348 364.131 584.178C354.474 585.406 344.713 586.209 334.985 586.373C324.062 586.556 313.173 585.246 302.359 583.608C262.226 577.525 225.213 563.282 191.277 541.036C176.167 531.129 161.883 520.113 149.281 507.166C124.055 481.254 104.673 451.392 90.5287 418.125C82.7194 399.764 76.7887 380.882 72.8194 361.49H193.63V332.62H68.3901C67.4381 323.804 66.7527 314.93 66.7554 306.089C66.7594 288.525 69.0314 271.12 72.5221 253.893C72.8127 252.465 73.0794 251.033 73.3687 249.55H43.5954C43.4914 250.034 43.3687 250.444 43.3207 250.861C42.1981 260.81 41.0514 270.758 39.986 280.714C39.662 283.721 39.562 286.75 39.3594 289.769V323.992C39.4434 324.614 39.582 325.234 39.6047 325.86C40.0567 338.553 41.374 351.157 43.4634 363.681C50.3674 405.04 65.1794 443.326 88.0047 478.512C100.983 498.516 116.561 516.314 133.582 532.95C161.115 559.864 192.591 580.666 228.438 594.773C253.551 604.656 279.554 610.886 306.485 612.773C318.058 613.584 329.697 613.58 341.309 613.73C356.262 613.924 371.121 612.682 385.883 610.288C424.583 604.014 460.294 590.038 493.146 568.684C511.826 556.541 528.498 542.024 544.195 526.254C572.121 498.2 593.749 466.001 608.849 429.426C621.673 398.368 629.163 366.05 631.038 332.498C631.629 321.918 631.575 311.298 631.661 300.696C631.794 283.71 630.374 266.84 627.578 250.086Z"></path>
<path fill="black" d="M385.6 199.681H0V226.826H385.6V199.681Z"></path>
</svg>
